<svg width="122" height="122" viewBox="0 0 122 122" fill="none" xmlns="http://www.w3.org/2000/svg">
<path fill-rule="evenodd" clip-rule="evenodd" d="M79.0232 25.8787C79.0122 26.055 78.9843 26.2299 78.94 26.4009C83.2064 30.9739 85.5967 36.9843 85.6362 43.2383C85.7263 56.8963 74.6839 68.3938 61.0259 68.3938H60.8665C47.2801 68.3938 36.1869 57.162 36.0991 43.5595C36.0529 35.7704 39.6169 28.3992 45.7505 23.5981V12.9393C45.7505 11.9184 46.5781 11.0908 47.599 11.0908C48.6199 11.0908 49.4474 11.9184 49.4474 12.9393V21.2205C52.9243 19.4097 56.7892 18.4708 60.7093 18.4848H60.8711C66.0567 18.4594 71.117 20.0772 75.3262 23.106V14.7878C75.3262 13.7669 76.1538 12.9393 77.1747 12.9393C78.1956 12.9393 79.0232 13.7669 79.0232 14.7878V25.8787ZM60.8643 64.6969H61.0006C72.623 64.6969 82.0133 54.923 81.9393 43.3053C81.8654 31.7315 72.422 22.1817 60.8689 22.1817H60.7326C49.1149 22.1817 39.72 31.9579 39.7939 43.5756C39.8678 55.1494 49.3113 64.6969 60.8643 64.6969Z" fill="black"/>
<path d="M78.94 26.4009L78.7948 26.3633L78.7742 26.443L78.8303 26.5032L78.94 26.4009ZM79.0232 25.8787L79.1732 25.8881V25.8787H79.0232ZM85.6362 43.2383L85.4862 43.2392L85.4862 43.2393L85.6362 43.2383ZM36.0991 43.5595L35.9491 43.5603L35.9491 43.5604L36.0991 43.5595ZM45.7505 23.5981L45.8429 23.7162L45.9005 23.6712V23.5981H45.7505ZM49.4474 21.2205H49.2974V21.4678L49.5167 21.3536L49.4474 21.2205ZM60.7093 18.4848L60.7088 18.6348H60.7093V18.4848ZM60.8711 18.4848L60.8711 18.6348L60.8718 18.6348L60.8711 18.4848ZM75.3262 23.106L75.2386 23.2277L75.4762 23.3987V23.106H75.3262ZM81.9393 43.3053L82.0893 43.3043L82.0893 43.3043L81.9393 43.3053ZM39.7939 43.5756L39.6439 43.5766L39.6439 43.5766L39.7939 43.5756ZM79.0852 26.4385C79.1319 26.2582 79.1613 26.0739 79.1729 25.8881L78.8735 25.8693C78.8631 26.0361 78.8367 26.2015 78.7948 26.3633L79.0852 26.4385ZM85.7862 43.2373C85.7464 36.9457 83.3417 30.8991 79.0497 26.2986L78.8303 26.5032C83.071 31.0487 85.4469 37.0229 85.4862 43.2392L85.7862 43.2373ZM61.0259 68.5438C74.7701 68.5438 85.8768 56.9755 85.7862 43.2373L85.4862 43.2393C85.5757 56.817 74.5977 68.2438 61.0259 68.2438V68.5438ZM60.8665 68.5438H61.0259V68.2438H60.8665V68.5438ZM35.9491 43.5604C36.0374 57.2437 47.1959 68.5438 60.8665 68.5438V68.2438C47.3643 68.2438 36.3364 57.0803 36.2491 43.5585L35.9491 43.5604ZM45.658 23.48C39.4879 28.3098 35.9027 35.7249 35.9491 43.5603L36.2491 43.5586C36.2032 35.816 39.746 28.4887 45.8429 23.7162L45.658 23.48ZM45.6005 12.9393V23.5981H45.9005V12.9393H45.6005ZM47.599 10.9408C46.4952 10.9408 45.6005 11.8356 45.6005 12.9393H45.9005C45.9005 12.0013 46.6609 11.2408 47.599 11.2408V10.9408ZM49.5974 12.9393C49.5974 11.8356 48.7027 10.9408 47.599 10.9408V11.2408C48.537 11.2408 49.2974 12.0013 49.2974 12.9393H49.5974ZM49.5974 21.2205V12.9393H49.2974V21.2205H49.5974ZM60.7099 18.3348C56.7654 18.3207 52.8766 19.2654 49.3782 21.0875L49.5167 21.3536C52.9721 19.554 56.8129 18.6209 60.7088 18.6348L60.7099 18.3348ZM60.8711 18.3348H60.7093V18.6348H60.8711V18.3348ZM75.4138 22.9842C71.1789 19.9369 66.0876 18.3092 60.8703 18.3348L60.8718 18.6348C66.0257 18.6095 71.0552 20.2174 75.2386 23.2277L75.4138 22.9842ZM75.1762 14.7878V23.106H75.4762V14.7878H75.1762ZM77.1747 12.7893C76.071 12.7893 75.1762 13.6841 75.1762 14.7878H75.4762C75.4762 13.8497 76.2367 13.0893 77.1747 13.0893V12.7893ZM79.1732 14.7878C79.1732 13.6841 78.2785 12.7893 77.1747 12.7893V13.0893C78.1128 13.0893 78.8732 13.8497 78.8732 14.7878H79.1732ZM79.1732 25.8787V14.7878H78.8732V25.8787H79.1732ZM61.0006 64.5469H60.8643V64.8469H61.0006V64.5469ZM81.7893 43.3062C81.8628 54.8437 72.5368 64.5469 61.0006 64.5469V64.8469C72.7091 64.8469 82.1638 55.0023 82.0893 43.3043L81.7893 43.3062ZM60.8689 22.3317C72.3379 22.3317 81.7159 31.8132 81.7893 43.3062L82.0893 43.3043C82.0149 31.6497 72.5061 22.0317 60.8689 22.0317V22.3317ZM60.7326 22.3317H60.8689V22.0317H60.7326V22.3317ZM39.9439 43.5747C39.8705 32.0372 49.201 22.3317 60.7326 22.3317V22.0317C49.0287 22.0317 39.5694 31.8786 39.6439 43.5766L39.9439 43.5747ZM60.8643 64.5469C49.3954 64.5469 40.0173 55.0676 39.9439 43.5747L39.6439 43.5766C39.7184 55.2313 49.2272 64.8469 60.8643 64.8469V64.5469Z" fill="black"/>
<path d="M70.966 36.2764C70.8459 36.1504 70.6921 36.0875 70.5052 36.0875H67.0772C66.8498 34.9255 66.4222 33.9169 65.7941 33.0627H70.4649C70.6523 33.0627 70.8056 32.9998 70.9262 32.874C71.0458 32.7481 71.106 32.5869 71.106 32.3909V30.2478C71.106 30.0517 71.0459 29.8908 70.9262 29.7647C70.8055 29.6389 70.6521 29.5757 70.4647 29.5757H53.7855C53.5983 29.5757 53.4447 29.6389 53.3244 29.7646C53.2044 29.8907 53.144 30.0516 53.144 30.2478V33.0415C53.144 33.2235 53.2075 33.381 53.3345 33.514C53.4614 33.647 53.6118 33.7136 53.7855 33.7136H56.6924C59.5122 33.7136 61.3031 34.5045 62.0649 36.0871H53.7855C53.5983 36.0871 53.4445 36.15 53.3244 36.276C53.2044 36.4022 53.144 36.563 53.144 36.7592V38.9019C53.144 39.0979 53.2041 39.259 53.3244 39.3848C53.4447 39.5109 53.5986 39.5737 53.7855 39.5737H62.3459C62.0519 40.7223 61.3668 41.5974 60.2908 42.1996C59.2148 42.8018 57.7951 43.103 56.0308 43.103H53.7855C53.6118 43.103 53.4614 43.1696 53.3345 43.3025C53.2074 43.4356 53.144 43.5932 53.144 43.7751V46.443C53.144 46.6253 53.2041 46.7793 53.3244 46.9052C55.8903 49.7619 59.2183 53.7596 63.3079 58.8994C63.4283 59.0676 63.5953 59.1514 63.8092 59.1514H67.7183C67.9992 59.1514 68.1932 59.0258 68.2997 58.7732C68.4334 58.5211 68.4072 58.2831 68.2195 58.059C64.3174 53.0455 61.2499 49.2926 59.0179 46.8C61.29 46.52 63.1344 45.7496 64.5512 44.4895C65.9677 43.2293 66.8296 41.5905 67.1372 39.5741H70.5052C70.6921 39.5741 70.8459 39.5112 70.966 39.3851C71.0864 39.2594 71.1467 39.0983 71.1467 38.9023V36.7598C71.1467 36.5634 71.0864 36.4025 70.966 36.2764Z" fill="black"/>
<path d="M47.599 0C46.5781 0 45.7505 0.827595 45.7505 1.84848V5.54545C45.7505 6.56634 46.5781 7.39394 47.599 7.39394C48.6199 7.39394 49.4475 6.56634 49.4475 5.54545V1.84848C49.4475 0.827595 48.6199 0 47.599 0Z" fill="black"/>
<path d="M77.1742 1.84863C76.1533 1.84863 75.3257 2.67623 75.3257 3.69712V7.39409C75.3257 8.41498 76.1533 9.24257 77.1742 9.24257C78.1951 9.24257 79.0227 8.41498 79.0227 7.39409V3.69712C79.0227 2.67623 78.1951 1.84863 77.1742 1.84863Z" fill="black"/>
<path d="M27.265 42.5151C26.2441 42.5151 25.4165 43.3427 25.4165 44.3636V59.1515C25.4165 60.1724 26.2441 61 27.265 61C28.2859 61 29.1135 60.1724 29.1135 59.1515V44.3636C29.1135 43.3427 28.2859 42.5151 27.265 42.5151Z" fill="black"/>
<path d="M27.265 31.4243C26.2441 31.4243 25.4165 32.2519 25.4165 33.2728V36.9698C25.4165 37.9907 26.2441 38.8183 27.265 38.8183C28.2859 38.8183 29.1135 37.9907 29.1135 36.9698V33.2728C29.1135 32.2519 28.2859 31.4243 27.265 31.4243Z" fill="black"/>
<path d="M97.5082 25.8789C96.4873 25.8789 95.6597 26.7065 95.6597 27.7274V42.5153C95.6597 43.5362 96.4873 44.3638 97.5082 44.3638C98.529 44.3638 99.3566 43.5362 99.3566 42.5153V27.7274C99.3566 26.7065 98.529 25.8789 97.5082 25.8789Z" fill="black"/>
<path d="M97.5082 14.7881C96.4873 14.7881 95.6597 15.6157 95.6597 16.6366V20.3335C95.6597 21.3544 96.4873 22.182 97.5082 22.182C98.529 22.182 99.3566 21.3544 99.3566 20.3335V16.6366C99.3566 15.6157 98.529 14.7881 97.5082 14.7881Z" fill="black"/>
<circle cx="47.599" cy="44.3636" r="1.84848" fill="black"/>
<circle cx="73.4774" cy="44.3636" r="1.84848" fill="black"/>
<path fill-rule="evenodd" clip-rule="evenodd" d="M12.6694 90.5758L29.1139 101.667L60.485 108.9L79.023 103.515V96.0971C79.023 96.0971 74.8846 99.8862 60.8662 98.083C46.8479 96.2799 47.5987 93.8155 34.8265 89.0807C22.0543 84.3459 12.6694 90.5758 12.6694 90.5758Z" fill="#2FB492"/>
<path fill-rule="evenodd" clip-rule="evenodd" d="M93.8108 72.0908H114.144C115.165 72.0908 115.993 72.9184 115.993 73.9393V109.061C115.993 110.081 115.165 110.909 114.144 110.909H93.8108C91.4686 110.898 89.386 109.416 88.6073 107.207H79.3533C78.7698 107.201 78.225 106.914 77.8907 106.436L61.7996 110.133C60.9691 110.321 60.107 110.321 59.2765 110.133L28.7025 103.15C28.4917 103.102 28.2908 103.017 28.1087 102.9L7.57433 89.6121C6.02519 88.6226 5.08648 86.9123 5.0835 85.0741V81.0652C5.08217 79.3593 5.89079 77.7541 7.2624 76.7398C8.6818 75.6762 10.5208 75.3471 12.221 75.8525L40.4866 84.1429C41.0711 82.2815 42.4694 80.7863 44.2876 80.0786L58.7612 74.3367C59.8203 73.9163 60.9818 73.8261 62.0931 74.0779L77.5141 77.5785C77.5451 76.5847 78.3567 75.7935 79.351 75.7878H88.605C89.3856 73.5799 91.469 72.1003 93.8108 72.0908ZM60.9722 106.537L77.0587 102.84L77.1742 81.2917L61.2818 77.6871C60.8965 77.599 60.4935 77.6304 60.1265 77.7772L45.6529 83.5237C44.6091 83.9184 43.914 84.9126 43.9015 86.0284C43.9015 87.5141 45.1792 88.7272 46.7481 88.7272H60.5378C61.5587 88.7272 62.3863 89.5548 62.3863 90.5757C62.3863 91.5966 61.5587 92.4242 60.5378 92.4242H46.7481C43.9443 92.439 41.4411 90.6702 40.5187 88.0225L11.174 79.4016C10.5918 79.2233 9.95937 79.335 9.47343 79.702C9.03698 80.0178 8.77903 80.5242 8.78024 81.0629V85.0718C8.78013 85.6559 9.07697 86.1999 9.56816 86.5159L29.8322 99.6286L60.1011 106.537C60.3876 106.604 60.6857 106.604 60.9722 106.537ZM88.2651 103.515H80.8711V79.4848H88.2651V103.515ZM93.8105 107.212H112.295V75.7878H93.8105C92.7896 75.7878 91.9621 76.6154 91.9621 77.6363V105.364C91.9621 106.384 92.7896 107.212 93.8105 107.212Z" fill="black"/>
<path d="M93.8108 72.0908V71.9408L93.8102 71.9408L93.8108 72.0908ZM93.8108 110.909L93.8101 111.059H93.8108V110.909ZM88.6073 107.207L88.7488 107.158L88.7135 107.057H88.6073V107.207ZM79.3533 107.207L79.3518 107.357H79.3533V107.207ZM77.8907 106.436L78.0137 106.35L77.9557 106.267L77.8571 106.289L77.8907 106.436ZM61.7996 110.133L61.8327 110.279L61.8332 110.279L61.7996 110.133ZM59.2765 110.133L59.2431 110.279L59.2434 110.279L59.2765 110.133ZM28.7025 103.15L28.669 103.296L28.6691 103.296L28.7025 103.15ZM28.1087 102.9L28.0272 103.026L28.0277 103.027L28.1087 102.9ZM7.57433 89.6121L7.65583 89.4862L7.65508 89.4857L7.57433 89.6121ZM5.0835 85.0741H4.9335L4.9335 85.0744L5.0835 85.0741ZM5.0835 81.0652L5.2335 81.0652L5.2335 81.0651L5.0835 81.0652ZM7.2624 76.7398L7.35159 76.8604L7.35235 76.8598L7.2624 76.7398ZM12.221 75.8525L12.1782 75.9963L12.1787 75.9964L12.221 75.8525ZM40.4866 84.1429L40.4444 84.2869L40.5856 84.3283L40.6297 84.1879L40.4866 84.1429ZM44.2876 80.0786L44.342 80.2184L44.3429 80.218L44.2876 80.0786ZM58.7612 74.3367L58.8165 74.4762L58.8165 74.4761L58.7612 74.3367ZM62.0931 74.0779L62.1263 73.9317L62.1262 73.9317L62.0931 74.0779ZM77.5141 77.5785L77.4809 77.7248L77.6583 77.7651L77.664 77.5832L77.5141 77.5785ZM79.351 75.7878V75.6378L79.3501 75.6378L79.351 75.7878ZM88.605 75.7878V75.9378H88.7111L88.7464 75.8378L88.605 75.7878ZM77.0587 102.84L77.0923 102.987L77.208 102.96L77.2087 102.841L77.0587 102.84ZM60.9722 106.537L60.9386 106.391L60.9381 106.391L60.9722 106.537ZM77.1742 81.2917L77.3242 81.2925L77.3248 81.172L77.2074 81.1454L77.1742 81.2917ZM61.2818 77.6871L61.2484 77.8333L61.2487 77.8334L61.2818 77.6871ZM60.1265 77.7772L60.1819 77.9166L60.1823 77.9165L60.1265 77.7772ZM45.6529 83.5237L45.706 83.664L45.7082 83.6631L45.6529 83.5237ZM43.9015 86.0284L43.7515 86.0267V86.0284H43.9015ZM46.7481 92.4242V92.2742L46.7473 92.2742L46.7481 92.4242ZM40.5187 88.0225L40.6604 87.9731L40.635 87.9003L40.561 87.8785L40.5187 88.0225ZM11.174 79.4016L11.1301 79.545L11.1318 79.5455L11.174 79.4016ZM9.47343 79.702L9.56137 79.8235L9.56382 79.8217L9.47343 79.702ZM8.78024 81.0629H8.93024L8.93024 81.0626L8.78024 81.0629ZM8.78024 85.0718L8.93024 85.0718V85.0718H8.78024ZM9.56816 86.5159L9.64965 86.39L9.64932 86.3898L9.56816 86.5159ZM29.8322 99.6286L29.7507 99.7546L29.7729 99.769L29.7988 99.7749L29.8322 99.6286ZM60.1011 106.537L60.1353 106.391L60.1345 106.391L60.1011 106.537ZM80.8711 103.515H80.7211V103.665H80.8711V103.515ZM88.2651 103.515V103.665H88.4151V103.515H88.2651ZM80.8711 79.4848V79.3348H80.7211V79.4848H80.8711ZM88.2651 79.4848H88.4151V79.3348H88.2651V79.4848ZM112.295 107.212V107.362H112.445V107.212H112.295ZM112.295 75.7878H112.445V75.6378H112.295V75.7878ZM114.144 71.9408H93.8108V72.2408H114.144V71.9408ZM116.143 73.9393C116.143 72.8356 115.248 71.9408 114.144 71.9408V72.2408C115.082 72.2408 115.843 73.0013 115.843 73.9393H116.143ZM116.143 109.061V73.9393H115.843V109.061H116.143ZM114.144 111.059C115.248 111.059 116.143 110.164 116.143 109.061H115.843C115.843 109.999 115.082 110.759 114.144 110.759V111.059ZM93.8108 111.059H114.144V110.759H93.8108V111.059ZM88.4658 107.257C89.2656 109.526 91.4046 111.048 93.8101 111.059L93.8115 110.759C91.5327 110.748 89.5064 109.307 88.7488 107.158L88.4658 107.257ZM79.3533 107.357H88.6073V107.057H79.3533V107.357ZM77.7677 106.522C78.1298 107.04 78.7198 107.351 79.3518 107.357L79.3548 107.057C78.8197 107.052 78.3202 106.788 78.0137 106.35L77.7677 106.522ZM61.8332 110.279L77.9243 106.582L77.8571 106.289L61.766 109.986L61.8332 110.279ZM59.2434 110.279C60.0957 110.472 60.9804 110.472 61.8327 110.279L61.7665 109.986C60.9578 110.169 60.1183 110.169 59.3096 109.986L59.2434 110.279ZM28.6691 103.296L59.2431 110.279L59.3099 109.986L28.7359 103.004L28.6691 103.296ZM28.0277 103.027C28.2243 103.153 28.4413 103.244 28.669 103.296L28.736 103.004C28.542 102.959 28.3572 102.882 28.1897 102.774L28.0277 103.027ZM7.49284 89.7381L28.0272 103.026L28.1902 102.775L7.65582 89.4862L7.49284 89.7381ZM4.9335 85.0744C4.93656 86.9637 5.90137 88.7215 7.49358 89.7386L7.65508 89.4857C6.14901 88.5237 5.2364 86.861 5.2335 85.0739L4.9335 85.0744ZM4.9335 81.0652V85.0741H5.2335V81.0652H4.9335ZM7.17321 76.6192C5.76332 77.6618 4.93213 79.3118 4.9335 81.0653L5.2335 81.0651C5.2322 79.4068 6.01826 77.8464 7.35159 76.8604L7.17321 76.6192ZM12.2637 75.7087C10.5181 75.1898 8.62983 75.5277 7.17245 76.6197L7.35235 76.8598C8.73376 75.8247 10.5236 75.5044 12.1782 75.9963L12.2637 75.7087ZM40.5288 83.999L12.2632 75.7086L12.1787 75.9964L40.4444 84.2869L40.5288 83.999ZM44.2331 79.9388C42.3726 80.6631 40.9417 82.1932 40.3435 84.098L40.6297 84.1879C41.2006 82.3699 42.5663 80.9096 44.342 80.2184L44.2331 79.9388ZM58.7059 74.1973L44.2322 79.9392L44.3429 80.218L58.8165 74.4762L58.7059 74.1973ZM62.1262 73.9317C60.9854 73.6731 59.7931 73.7657 58.7058 74.1973L58.8165 74.4761C59.8475 74.0669 60.9781 73.979 62.0599 74.2242L62.1262 73.9317ZM77.5473 77.4322L62.1263 73.9317L62.0599 74.2242L77.4809 77.7248L77.5473 77.4322ZM79.3501 75.6378C78.2752 75.644 77.3977 76.4994 77.3641 77.5738L77.664 77.5832C77.6925 76.67 78.4383 75.9431 79.3519 75.9378L79.3501 75.6378ZM88.605 75.6378H79.351V75.9378H88.605V75.6378ZM93.8102 71.9408C91.405 71.9506 89.2653 73.4702 88.4636 75.7378L88.7464 75.8378C89.5059 73.6896 91.5329 72.2501 93.8114 72.2408L93.8102 71.9408ZM77.0251 102.694L60.9386 106.391L61.0058 106.684L77.0923 102.987L77.0251 102.694ZM77.0242 81.2909L76.9087 102.84L77.2087 102.841L77.3242 81.2925L77.0242 81.2909ZM61.2487 77.8334L77.141 81.4379L77.2074 81.1454L61.315 77.5408L61.2487 77.8334ZM60.1823 77.9165C60.5209 77.781 60.8928 77.752 61.2484 77.8333L61.3153 77.5409C60.9002 77.4459 60.4661 77.4798 60.0708 77.638L60.1823 77.9165ZM45.7082 83.6631L60.1819 77.9166L60.0712 77.6378L45.5975 83.3843L45.7082 83.6631ZM44.0514 86.0301C44.0633 84.976 44.72 84.0369 45.706 83.664L45.5998 83.3834C44.4983 83.8 43.7647 84.8491 43.7515 86.0267L44.0514 86.0301ZM46.7481 88.5772C45.2545 88.5772 44.0515 87.4239 44.0515 86.0284H43.7515C43.7515 87.6043 45.104 88.8772 46.7481 88.8772V88.5772ZM60.5378 88.5772H46.7481V88.8772H60.5378V88.5772ZM62.5363 90.5757C62.5363 89.4719 61.6416 88.5772 60.5378 88.5772V88.8772C61.4759 88.8772 62.2363 89.6376 62.2363 90.5757H62.5363ZM60.5378 92.5742C61.6416 92.5742 62.5363 91.6794 62.5363 90.5757H62.2363C62.2363 91.5137 61.4759 92.2742 60.5378 92.2742V92.5742ZM46.7481 92.5742H60.5378V92.2742H46.7481V92.5742ZM40.3771 88.0718C41.3206 90.7801 43.881 92.5893 46.7489 92.5742L46.7473 92.2742C44.0077 92.2887 41.5617 90.5603 40.6604 87.9731L40.3771 88.0718ZM11.1318 79.5455L40.4764 88.1664L40.561 87.8785L11.2163 79.2577L11.1318 79.5455ZM9.56382 79.8217C10.0114 79.4837 10.5939 79.3808 11.1301 79.545L11.2179 79.2582C10.5897 79.0658 9.90735 79.1863 9.38303 79.5823L9.56382 79.8217ZM8.93024 81.0626C8.92914 80.5721 9.16399 80.111 9.56136 79.8235L9.3855 79.5804C8.90996 79.9245 8.62892 80.4763 8.63024 81.0632L8.93024 81.0626ZM8.93024 85.0718V81.0629H8.63024V85.0718H8.93024ZM9.64932 86.3898C9.20104 86.1014 8.93014 85.6049 8.93024 85.0718L8.63024 85.0718C8.63012 85.7069 8.95289 86.2985 9.487 86.6421L9.64932 86.3898ZM29.9137 99.5027L9.64965 86.39L9.48667 86.6419L29.7507 99.7546L29.9137 99.5027ZM60.1345 106.391L29.8656 99.4824L29.7988 99.7749L60.0677 106.684L60.1345 106.391ZM60.9381 106.391C60.674 106.453 60.3993 106.453 60.1353 106.391L60.067 106.683C60.3759 106.756 60.6974 106.756 61.0064 106.683L60.9381 106.391ZM80.8711 103.665H88.2651V103.365H80.8711V103.665ZM80.7211 79.4848V103.515H81.0211V79.4848H80.7211ZM88.2651 79.3348H80.8711V79.6348H88.2651V79.3348ZM88.4151 103.515V79.4848H88.1151V103.515H88.4151ZM112.295 107.062H93.8105V107.362H112.295V107.062ZM112.145 75.7878V107.212H112.445V75.7878H112.145ZM93.8105 75.9378H112.295V75.6378H93.8105V75.9378ZM92.1121 77.6363C92.1121 76.6982 92.8725 75.9378 93.8105 75.9378V75.6378C92.7068 75.6378 91.8121 76.5325 91.8121 77.6363H92.1121ZM92.1121 105.364V77.6363H91.8121V105.364H92.1121ZM93.8105 107.062C92.8725 107.062 92.1121 106.302 92.1121 105.364H91.8121C91.8121 106.467 92.7068 107.362 93.8105 107.362V107.062Z" fill="black"/>
<ellipse cx="60.5378" cy="114.606" rx="40.6667" ry="7.39394" fill="#1D1939"/>
<path d="M105.232 99.8184H99.6864C98.6655 99.8184 97.8379 100.646 97.8379 101.667C97.8379 102.688 98.6655 103.515 99.6864 103.515H105.232C106.253 103.515 107.08 102.688 107.08 101.667C107.08 100.646 106.253 99.8184 105.232 99.8184Z" fill="black"/>
</svg>
