<svg width="124" height="124" viewBox="0 0 124 124" fill="none" xmlns="http://www.w3.org/2000/svg">
<path fill-rule="evenodd" clip-rule="evenodd" d="M4.0498 120.78V113.624H7.393V104.95C7.393 104.95 11.1352 102.359 13.7934 100.933C16.4517 99.5065 19.1805 98.4334 19.1805 98.4334V104.95H22.6692V113.624H30.7982V104.95H34.5533V93.4965C34.5533 93.4965 36.5058 93.1665 38.3869 93.1665C40.268 93.1665 42.3843 93.1665 42.3843 93.1665V104.95H46.6686V113.624H54.4401V104.95H58.4492V96.8591C58.4492 96.8591 60.7591 97.7042 62.57 98.4334C64.3809 99.1626 66.3671 100.047 66.3671 100.047V104.95H69.7635V113.987H78.0475V104.95H81.8258V99.6962C81.8258 99.6962 83.7163 99.2828 85.6537 98.8591C87.5912 98.4354 89.5286 98.0118 89.5286 98.0118V104.95H93.6164V113.987H97.4192V120.78H4.0498Z" fill="#00C5B3"/>
<path fill-rule="evenodd" clip-rule="evenodd" d="M58.0645 24.6127C54.8099 24.6127 52.1613 27.2613 52.1613 30.516H54.5934L99.3871 52.9128V63.9676H95.4516V71.8385H91.5161V103.322H95.4516V111.193H99.3871V123H1V111.193H4.93548V103.322H8.87097V71.8385H4.93548V63.9676H1V52.9128L45.7937 30.516H48.2258C48.2258 25.0909 52.6395 20.6772 58.0645 20.6772H67.9032V24.6127H58.0645ZM20.6772 107.258H8.87073V111.193H20.6772V107.258ZM32.484 71.8385V103.322H28.5485V111.193H24.613V103.322H20.6776V71.8385H24.613V63.9676H28.5485V71.8385H32.484ZM56.0969 103.322V71.8385H52.1615V63.9676H48.226V71.8385H44.2905V103.322H48.226V111.193H52.1615V103.322H56.0969ZM79.7099 71.8385V103.322H75.7744V111.193H71.8389V103.322H67.9034V71.8385H71.8389V63.9676H75.7744V71.8385H79.7099ZM91.516 111.193V107.258H79.7095V111.193H91.516ZM83.6449 103.322V71.8385H87.5804V103.322H83.6449ZM56.0966 67.903H67.903V63.9676H56.0966V67.903ZM63.9674 71.8385V103.322H60.0319V71.8385H63.9674ZM67.903 111.193V107.258H56.0966V111.193H67.903ZM44.2901 67.903H32.4837V63.9676H44.2901V67.903ZM40.3545 103.322V71.8385H36.419V103.322H40.3545ZM44.2901 107.258V111.193H32.4837V107.258H44.2901ZM8.87073 67.903H20.6772V63.9676H8.87073V67.903ZM16.7416 71.8385V103.322H12.8061V71.8385H16.7416ZM95.4515 119.064V115.129H4.93536V119.064H95.4515ZM91.516 67.903H79.7095V63.9676H91.516V67.903ZM75.7741 60.0321H95.4515V55.3449L53.6645 34.4514H52.1612V48.2256H48.2257V34.4514H46.7223L4.93536 55.3449V60.0321H24.6128H28.5483H48.2257H52.1612H71.8386H75.7741Z" fill="black"/>
<path d="M52.1613 30.516H52.0613V30.616H52.1613V30.516ZM54.5934 30.516L54.6381 30.4265L54.617 30.416H54.5934V30.516ZM99.3871 52.9128H99.4871V52.851L99.4318 52.8234L99.3871 52.9128ZM99.3871 63.9676V64.0676H99.4871V63.9676H99.3871ZM95.4516 63.9676V63.8676H95.3516V63.9676H95.4516ZM95.4516 71.8385V71.9385H95.5516V71.8385H95.4516ZM91.5161 71.8385V71.7385H91.4161V71.8385H91.5161ZM91.5161 103.322H91.4161V103.422H91.5161V103.322ZM95.4516 103.322H95.5516V103.222H95.4516V103.322ZM95.4516 111.193H95.3516V111.293H95.4516V111.193ZM99.3871 111.193H99.4871V111.093H99.3871V111.193ZM99.3871 123V123.1H99.4871V123H99.3871ZM1 123H0.9V123.1H1V123ZM1 111.193V111.093H0.9V111.193H1ZM4.93548 111.193V111.293H5.03548V111.193H4.93548ZM4.93548 103.322V103.222H4.83548V103.322H4.93548ZM8.87097 103.322V103.422H8.97097V103.322H8.87097ZM8.87097 71.8385H8.97097V71.7385H8.87097V71.8385ZM4.93548 71.8385H4.83548V71.9385H4.93548V71.8385ZM4.93548 63.9676H5.03548V63.8676H4.93548V63.9676ZM1 63.9676H0.9V64.0676H1V63.9676ZM1 52.9128L0.955279 52.8234L0.9 52.851V52.9128H1ZM45.7937 30.516V30.416H45.7701L45.749 30.4265L45.7937 30.516ZM48.2258 30.516V30.616H48.3258V30.516H48.2258ZM67.9032 20.6772H68.0032V20.5772H67.9032V20.6772ZM67.9032 24.6127V24.7127H68.0032V24.6127H67.9032ZM8.87073 107.258V107.158H8.77073V107.258H8.87073ZM20.6772 107.258H20.7772V107.158H20.6772V107.258ZM8.87073 111.193H8.77073V111.293H8.87073V111.193ZM20.6772 111.193V111.293H20.7772V111.193H20.6772ZM32.484 103.322V103.422H32.584V103.322H32.484ZM32.484 71.8385H32.584V71.7385H32.484V71.8385ZM28.5485 103.322V103.222H28.4485V103.322H28.5485ZM28.5485 111.193V111.293H28.6485V111.193H28.5485ZM24.613 111.193H24.513V111.293H24.613V111.193ZM24.613 103.322H24.713V103.222H24.613V103.322ZM20.6776 103.322H20.5776V103.422H20.6776V103.322ZM20.6776 71.8385V71.7385H20.5776V71.8385H20.6776ZM24.613 71.8385V71.9385H24.713V71.8385H24.613ZM24.613 63.9676V63.8676H24.513V63.9676H24.613ZM28.5485 63.9676H28.6485V63.8676H28.5485V63.9676ZM28.5485 71.8385H28.4485V71.9385H28.5485V71.8385ZM56.0969 71.8385H56.1969V71.7385H56.0969V71.8385ZM56.0969 103.322V103.422H56.1969V103.322H56.0969ZM52.1615 71.8385H52.0615V71.9385H52.1615V71.8385ZM52.1615 63.9676H52.2615V63.8676H52.1615V63.9676ZM48.226 63.9676V63.8676H48.126V63.9676H48.226ZM48.226 71.8385V71.9385H48.326V71.8385H48.226ZM44.2905 71.8385V71.7385H44.1905V71.8385H44.2905ZM44.2905 103.322H44.1905V103.422H44.2905V103.322ZM48.226 103.322H48.326V103.222H48.226V103.322ZM48.226 111.193H48.126V111.293H48.226V111.193ZM52.1615 111.193V111.293H52.2615V111.193H52.1615ZM52.1615 103.322V103.222H52.0615V103.322H52.1615ZM79.7099 103.322V103.422H79.8099V103.322H79.7099ZM79.7099 71.8385H79.8099V71.7385H79.7099V71.8385ZM75.7744 103.322V103.222H75.6744V103.322H75.7744ZM75.7744 111.193V111.293H75.8744V111.193H75.7744ZM71.8389 111.193H71.7389V111.293H71.8389V111.193ZM71.8389 103.322H71.9389V103.222H71.8389V103.322ZM67.9034 103.322H67.8034V103.422H67.9034V103.322ZM67.9034 71.8385V71.7385H67.8034V71.8385H67.9034ZM71.8389 71.8385V71.9385H71.9389V71.8385H71.8389ZM71.8389 63.9676V63.8676H71.7389V63.9676H71.8389ZM75.7744 63.9676H75.8744V63.8676H75.7744V63.9676ZM75.7744 71.8385H75.6744V71.9385H75.7744V71.8385ZM91.516 107.258H91.616V107.158H91.516V107.258ZM91.516 111.193V111.293H91.616V111.193H91.516ZM79.7095 107.258V107.158H79.6095V107.258H79.7095ZM79.7095 111.193H79.6095V111.293H79.7095V111.193ZM83.6449 71.8385V71.7385H83.5449V71.8385H83.6449ZM83.6449 103.322H83.5449V103.422H83.6449V103.322ZM87.5804 71.8385H87.6804V71.7385H87.5804V71.8385ZM87.5804 103.322V103.422H87.6804V103.322H87.5804ZM67.903 67.903V68.003H68.003V67.903H67.903ZM56.0966 67.903H55.9966V68.003H56.0966V67.903ZM67.903 63.9676H68.003V63.8676H67.903V63.9676ZM56.0966 63.9676V63.8676H55.9966V63.9676H56.0966ZM63.9674 103.322V103.422H64.0674V103.322H63.9674ZM63.9674 71.8385H64.0674V71.7385H63.9674V71.8385ZM60.0319 103.322H59.9319V103.422H60.0319V103.322ZM60.0319 71.8385V71.7385H59.9319V71.8385H60.0319ZM67.903 107.258H68.003V107.158H67.903V107.258ZM67.903 111.193V111.293H68.003V111.193H67.903ZM56.0966 107.258V107.158H55.9966V107.258H56.0966ZM56.0966 111.193H55.9966V111.293H56.0966V111.193ZM32.4837 67.903H32.3837V68.003H32.4837V67.903ZM44.2901 67.903V68.003H44.3901V67.903H44.2901ZM32.4837 63.9676V63.8676H32.3837V63.9676H32.4837ZM44.2901 63.9676H44.3901V63.8676H44.2901V63.9676ZM40.3545 71.8385H40.4545V71.7385H40.3545V71.8385ZM40.3545 103.322V103.422H40.4545V103.322H40.3545ZM36.419 71.8385V71.7385H36.319V71.8385H36.419ZM36.419 103.322H36.319V103.422H36.419V103.322ZM44.2901 111.193V111.293H44.3901V111.193H44.2901ZM44.2901 107.258H44.3901V107.158H44.2901V107.258ZM32.4837 111.193H32.3837V111.293H32.4837V111.193ZM32.4837 107.258V107.158H32.3837V107.258H32.4837ZM20.6772 67.903V68.003H20.7772V67.903H20.6772ZM8.87073 67.903H8.77073V68.003H8.87073V67.903ZM20.6772 63.9676H20.7772V63.8676H20.6772V63.9676ZM8.87073 63.9676V63.8676H8.77073V63.9676H8.87073ZM16.7416 103.322V103.422H16.8416V103.322H16.7416ZM16.7416 71.8385H16.8416V71.7385H16.7416V71.8385ZM12.8061 103.322H12.7061V103.422H12.8061V103.322ZM12.8061 71.8385V71.7385H12.7061V71.8385H12.8061ZM95.4515 115.129H95.5515V115.029H95.4515V115.129ZM95.4515 119.064V119.164H95.5515V119.064H95.4515ZM4.93536 115.129V115.029H4.83536V115.129H4.93536ZM4.93536 119.064H4.83536V119.164H4.93536V119.064ZM79.7095 67.903H79.6095V68.003H79.7095V67.903ZM91.516 67.903V68.003H91.616V67.903H91.516ZM79.7095 63.9676V63.8676H79.6095V63.9676H79.7095ZM91.516 63.9676H91.616V63.8676H91.516V63.9676ZM95.4515 60.0321V60.1321H95.5515V60.0321H95.4515ZM95.4515 55.3449H95.5515V55.2831L95.4962 55.2555L95.4515 55.3449ZM53.6645 34.4514L53.7092 34.362L53.6881 34.3514H53.6645V34.4514ZM52.1612 34.4514V34.3514H52.0612V34.4514H52.1612ZM52.1612 48.2256V48.3256H52.2612V48.2256H52.1612ZM48.2257 48.2256H48.1257V48.3256H48.2257V48.2256ZM48.2257 34.4514H48.3257V34.3514H48.2257V34.4514ZM46.7223 34.4514V34.3514H46.6987L46.6776 34.362L46.7223 34.4514ZM4.93536 55.3449L4.89064 55.2555L4.83536 55.2831V55.3449H4.93536ZM4.93536 60.0321H4.83536V60.1321H4.93536V60.0321ZM52.2613 30.516C52.2613 27.3165 54.8651 24.7127 58.0645 24.7127V24.5127C54.7546 24.5127 52.0613 27.2061 52.0613 30.516H52.2613ZM54.5934 30.416H52.1613V30.616H54.5934V30.416ZM99.4318 52.8234L54.6381 30.4265L54.5487 30.6054L99.3424 53.0022L99.4318 52.8234ZM99.4871 63.9676V52.9128H99.2871V63.9676H99.4871ZM95.4516 64.0676H99.3871V63.8676H95.4516V64.0676ZM95.5516 71.8385V63.9676H95.3516V71.8385H95.5516ZM91.5161 71.9385H95.4516V71.7385H91.5161V71.9385ZM91.6161 103.322V71.8385H91.4161V103.322H91.6161ZM95.4516 103.222H91.5161V103.422H95.4516V103.222ZM95.5516 111.193V103.322H95.3516V111.193H95.5516ZM99.3871 111.093H95.4516V111.293H99.3871V111.093ZM99.4871 123V111.193H99.2871V123H99.4871ZM1 123.1H99.3871V122.9H1V123.1ZM0.9 111.193V123H1.1V111.193H0.9ZM4.93548 111.093H1V111.293H4.93548V111.093ZM4.83548 103.322V111.193H5.03548V103.322H4.83548ZM8.87097 103.222H4.93548V103.422H8.87097V103.222ZM8.77097 71.8385V103.322H8.97097V71.8385H8.77097ZM4.93548 71.9385H8.87097V71.7385H4.93548V71.9385ZM4.83548 63.9676V71.8385H5.03548V63.9676H4.83548ZM1 64.0676H4.93548V63.8676H1V64.0676ZM0.9 52.9128V63.9676H1.1V52.9128H0.9ZM45.749 30.4265L0.955279 52.8234L1.04472 53.0022L45.8384 30.6054L45.749 30.4265ZM48.2258 30.416H45.7937V30.616H48.2258V30.416ZM58.0645 20.5772C52.5842 20.5772 48.1258 25.0357 48.1258 30.516H48.3258C48.3258 25.1461 52.6947 20.7772 58.0645 20.7772V20.5772ZM67.9032 20.5772H58.0645V20.7772H67.9032V20.5772ZM68.0032 24.6127V20.6772H67.8032V24.6127H68.0032ZM58.0645 24.7127H67.9032V24.5127H58.0645V24.7127ZM8.87073 107.358H20.6772V107.158H8.87073V107.358ZM8.97073 111.193V107.258H8.77073V111.193H8.97073ZM20.6772 111.093H8.87073V111.293H20.6772V111.093ZM20.5772 107.258V111.193H20.7772V107.258H20.5772ZM32.584 103.322V71.8385H32.384V103.322H32.584ZM28.5485 103.422H32.484V103.222H28.5485V103.422ZM28.6485 111.193V103.322H28.4485V111.193H28.6485ZM24.613 111.293H28.5485V111.093H24.613V111.293ZM24.513 103.322V111.193H24.713V103.322H24.513ZM20.6776 103.422H24.613V103.222H20.6776V103.422ZM20.5776 71.8385V103.322H20.7776V71.8385H20.5776ZM24.613 71.7385H20.6776V71.9385H24.613V71.7385ZM24.513 63.9676V71.8385H24.713V63.9676H24.513ZM28.5485 63.8676H24.613V64.0676H28.5485V63.8676ZM28.6485 71.8385V63.9676H28.4485V71.8385H28.6485ZM32.484 71.7385H28.5485V71.9385H32.484V71.7385ZM55.9969 71.8385V103.322H56.1969V71.8385H55.9969ZM52.1615 71.9385H56.0969V71.7385H52.1615V71.9385ZM52.0615 63.9676V71.8385H52.2615V63.9676H52.0615ZM48.226 64.0676H52.1615V63.8676H48.226V64.0676ZM48.326 71.8385V63.9676H48.126V71.8385H48.326ZM44.2905 71.9385H48.226V71.7385H44.2905V71.9385ZM44.3905 103.322V71.8385H44.1905V103.322H44.3905ZM48.226 103.222H44.2905V103.422H48.226V103.222ZM48.326 111.193V103.322H48.126V111.193H48.326ZM52.1615 111.093H48.226V111.293H52.1615V111.093ZM52.0615 103.322V111.193H52.2615V103.322H52.0615ZM56.0969 103.222H52.1615V103.422H56.0969V103.222ZM79.8099 103.322V71.8385H79.6099V103.322H79.8099ZM75.7744 103.422H79.7099V103.222H75.7744V103.422ZM75.8744 111.193V103.322H75.6744V111.193H75.8744ZM71.8389 111.293H75.7744V111.093H71.8389V111.293ZM71.7389 103.322V111.193H71.9389V103.322H71.7389ZM67.9034 103.422H71.8389V103.222H67.9034V103.422ZM67.8034 71.8385V103.322H68.0034V71.8385H67.8034ZM71.8389 71.7385H67.9034V71.9385H71.8389V71.7385ZM71.7389 63.9676V71.8385H71.9389V63.9676H71.7389ZM75.7744 63.8676H71.8389V64.0676H75.7744V63.8676ZM75.8744 71.8385V63.9676H75.6744V71.8385H75.8744ZM79.7099 71.7385H75.7744V71.9385H79.7099V71.7385ZM91.416 107.258V111.193H91.616V107.258H91.416ZM79.7095 107.358H91.516V107.158H79.7095V107.358ZM79.8095 111.193V107.258H79.6095V111.193H79.8095ZM91.516 111.093H79.7095V111.293H91.516V111.093ZM83.5449 71.8385V103.322H83.7449V71.8385H83.5449ZM87.5804 71.7385H83.6449V71.9385H87.5804V71.7385ZM87.6804 103.322V71.8385H87.4804V103.322H87.6804ZM83.6449 103.422H87.5804V103.222H83.6449V103.422ZM67.903 67.803H56.0966V68.003H67.903V67.803ZM67.803 63.9676V67.903H68.003V63.9676H67.803ZM56.0966 64.0676H67.903V63.8676H56.0966V64.0676ZM56.1966 67.903V63.9676H55.9966V67.903H56.1966ZM64.0674 103.322V71.8385H63.8674V103.322H64.0674ZM60.0319 103.422H63.9674V103.222H60.0319V103.422ZM59.9319 71.8385V103.322H60.1319V71.8385H59.9319ZM63.9674 71.7385H60.0319V71.9385H63.9674V71.7385ZM67.803 107.258V111.193H68.003V107.258H67.803ZM56.0966 107.358H67.903V107.158H56.0966V107.358ZM56.1966 111.193V107.258H55.9966V111.193H56.1966ZM67.903 111.093H56.0966V111.293H67.903V111.093ZM32.4837 68.003H44.2901V67.803H32.4837V68.003ZM32.3837 63.9676V67.903H32.5837V63.9676H32.3837ZM44.2901 63.8676H32.4837V64.0676H44.2901V63.8676ZM44.3901 67.903V63.9676H44.1901V67.903H44.3901ZM40.2545 71.8385V103.322H40.4545V71.8385H40.2545ZM36.419 71.9385H40.3545V71.7385H36.419V71.9385ZM36.519 103.322V71.8385H36.319V103.322H36.519ZM40.3545 103.222H36.419V103.422H40.3545V103.222ZM44.3901 111.193V107.258H44.1901V111.193H44.3901ZM32.4837 111.293H44.2901V111.093H32.4837V111.293ZM32.3837 107.258V111.193H32.5837V107.258H32.3837ZM44.2901 107.158H32.4837V107.358H44.2901V107.158ZM20.6772 67.803H8.87073V68.003H20.6772V67.803ZM20.5772 63.9676V67.903H20.7772V63.9676H20.5772ZM8.87073 64.0676H20.6772V63.8676H8.87073V64.0676ZM8.97073 67.903V63.9676H8.77073V67.903H8.97073ZM16.8416 103.322V71.8385H16.6416V103.322H16.8416ZM12.8061 103.422H16.7416V103.222H12.8061V103.422ZM12.7061 71.8385V103.322H12.9061V71.8385H12.7061ZM16.7416 71.7385H12.8061V71.9385H16.7416V71.7385ZM95.3515 115.129V119.064H95.5515V115.129H95.3515ZM4.93536 115.229H95.4515V115.029H4.93536V115.229ZM5.03536 119.064V115.129H4.83536V119.064H5.03536ZM95.4515 118.964H4.93536V119.164H95.4515V118.964ZM79.7095 68.003H91.516V67.803H79.7095V68.003ZM79.6095 63.9676V67.903H79.8095V63.9676H79.6095ZM91.516 63.8676H79.7095V64.0676H91.516V63.8676ZM91.616 67.903V63.9676H91.416V67.903H91.616ZM95.4515 59.9321H75.7741V60.1321H95.4515V59.9321ZM95.3515 55.3449V60.0321H95.5515V55.3449H95.3515ZM53.6198 34.5409L95.4068 55.4344L95.4962 55.2555L53.7092 34.362L53.6198 34.5409ZM52.1612 34.5514H53.6645V34.3514H52.1612V34.5514ZM52.2612 48.2256V34.4514H52.0612V48.2256H52.2612ZM48.2257 48.3256H52.1612V48.1256H48.2257V48.3256ZM48.1257 34.4514V48.2256H48.3257V34.4514H48.1257ZM46.7223 34.5514H48.2257V34.3514H46.7223V34.5514ZM4.98009 55.4344L46.7671 34.5409L46.6776 34.362L4.89064 55.2555L4.98009 55.4344ZM5.03536 60.0321V55.3449H4.83536V60.0321H5.03536ZM24.6128 59.9321H4.93536V60.1321H24.6128V59.9321ZM28.5483 59.9321H24.6128V60.1321H28.5483V59.9321ZM48.2257 59.9321H28.5483V60.1321H48.2257V59.9321ZM52.1612 59.9321H48.2257V60.1321H52.1612V59.9321ZM71.8386 59.9321H52.1612V60.1321H71.8386V59.9321ZM75.7741 59.9321H71.8386V60.1321H75.7741V59.9321Z" fill="black"/>
<rect x="16.7422" y="52.1611" width="66.9032" height="3.93548" fill="black" stroke="black" stroke-width="0.1"/>
<path fill-rule="evenodd" clip-rule="evenodd" d="M79.7095 22.6452C79.7095 10.7108 89.4203 1 101.355 1C113.289 1 123 10.7108 123 22.6452C123 34.5795 113.289 44.2903 101.355 44.2903C89.4203 44.2903 79.7095 34.5795 79.7095 22.6452ZM83.6446 22.6452C83.6446 32.4111 91.5884 40.3548 101.354 40.3548C111.12 40.3548 119.064 32.4111 119.064 22.6452C119.064 12.8793 111.12 4.93548 101.354 4.93548C91.5884 4.93548 83.6446 12.8793 83.6446 22.6452Z" fill="black"/>
<path d="M101.355 0.95C89.3927 0.95 79.6595 10.6832 79.6595 22.6452H79.7595C79.7595 10.7384 89.4479 1.05 101.355 1.05V0.95ZM123.05 22.6452C123.05 10.6832 113.317 0.95 101.355 0.95V1.05C113.261 1.05 122.95 10.7384 122.95 22.6452H123.05ZM101.355 44.3403C113.317 44.3403 123.05 34.6071 123.05 22.6452H122.95C122.95 34.5519 113.261 44.2403 101.355 44.2403V44.3403ZM79.6595 22.6452C79.6595 34.6071 89.3927 44.3403 101.355 44.3403V44.2403C89.4479 44.2403 79.7595 34.5519 79.7595 22.6452H79.6595ZM101.354 40.3048C91.616 40.3048 83.6946 32.3834 83.6946 22.6452H83.5946C83.5946 32.4387 91.5607 40.4048 101.354 40.4048V40.3048ZM119.014 22.6452C119.014 32.3834 111.093 40.3048 101.354 40.3048V40.4048C111.148 40.4048 119.114 32.4387 119.114 22.6452H119.014ZM101.354 4.98548C111.093 4.98548 119.014 12.9069 119.014 22.6452H119.114C119.114 12.8516 111.148 4.88548 101.354 4.88548V4.98548ZM83.6946 22.6452C83.6946 12.9069 91.616 4.98548 101.354 4.98548V4.88548C91.5607 4.88548 83.5946 12.8516 83.5946 22.6452H83.6946Z" fill="black"/>
<path d="M108.728 16.2878C108.629 16.1839 108.502 16.132 108.348 16.132H105.52C105.332 15.1734 104.979 14.3413 104.461 13.6366H108.315C108.469 13.6366 108.596 13.5846 108.695 13.4809C108.794 13.377 108.843 13.244 108.843 13.0823V11.3143C108.843 11.1525 108.794 11.0197 108.695 10.9157C108.596 10.8119 108.469 10.7598 108.314 10.7598H94.5541C94.3996 10.7598 94.273 10.8119 94.1737 10.9156C94.0747 11.0197 94.0249 11.1524 94.0249 11.3142V13.619C94.0249 13.7692 94.0773 13.8992 94.182 14.0089C94.2867 14.1186 94.4108 14.1735 94.5541 14.1735H96.9523C99.2786 14.1735 100.756 14.8261 101.385 16.1317H94.5541C94.3996 16.1317 94.2728 16.1836 94.1737 16.2875C94.0747 16.3916 94.0249 16.5243 94.0249 16.6861V18.4539C94.0249 18.6156 94.0744 18.7485 94.1737 18.8522C94.273 18.9563 94.3999 19.0081 94.5541 19.0081H101.616C101.374 19.9557 100.809 20.6777 99.921 21.1745C99.0332 21.6713 97.862 21.9198 96.4065 21.9198H94.5541C94.4108 21.9198 94.2867 21.9747 94.182 22.0844C94.0772 22.1942 94.0249 22.3242 94.0249 22.4742V24.6753C94.0249 24.8257 94.0744 24.9528 94.1737 25.0566C96.2906 27.4134 99.0361 30.7115 102.41 34.9518C102.509 35.0906 102.647 35.1598 102.824 35.1598H106.049C106.28 35.1598 106.44 35.0561 106.528 34.8477C106.639 34.6398 106.617 34.4434 106.462 34.2585C103.243 30.1224 100.712 27.0262 98.8709 24.9698C100.745 24.7388 102.267 24.1032 103.436 23.0637C104.604 22.024 105.316 20.672 105.569 19.0084H108.348C108.502 19.0084 108.629 18.9566 108.728 18.8526C108.827 18.7488 108.877 18.6159 108.877 18.4542V16.6866C108.877 16.5246 108.827 16.3919 108.728 16.2878Z" fill="black"/>
<rect x="71.8389" y="20.6772" width="3.93548" height="3.93548" fill="black"/>
<path d="M111.193 77.7417C111.193 80.9963 108.545 83.6449 105.29 83.6449H103.322V87.5804H105.29C110.715 87.5804 115.129 83.1667 115.129 77.7417V46.2578H111.193V77.7417Z" fill="black"/>
<rect x="95.4517" y="83.645" width="3.93548" height="3.93548" fill="black"/>
</svg>
