<svg width="122" height="123" viewBox="0 0 122 123" fill="none" xmlns="http://www.w3.org/2000/svg">
<ellipse cx="61.2938" cy="114.974" rx="46.5526" ry="8.02632" fill="#1D1939"/>
<path fill-rule="evenodd" clip-rule="evenodd" d="M24.6519 84.4736C24.6519 84.4736 37.861 76.3153 55.726 84.4736C64.4282 88.4475 79.1715 83.6993 88.5832 70.0262C92.0526 64.9859 93.4498 51.207 93.4498 51.207C93.4498 51.207 106.018 83.7138 90.635 99.3437C75.2525 114.974 39.656 102.945 39.656 102.945C39.656 102.945 31.6506 97.1967 28.7916 93.6771C25.9327 90.1574 24.6519 84.4736 24.6519 84.4736Z" fill="#00C5B3"/>
<path fill-rule="evenodd" clip-rule="evenodd" d="M78.7422 23.8879C78.7422 25.1961 78.3636 26.4074 77.7459 27.4567C91.354 36.5362 101.425 56.3519 101.425 74.5936C101.425 96.5308 86.0479 110.158 61.2937 110.158C36.5395 110.158 21.1621 96.5308 21.1621 74.5936C21.1621 56.3536 31.2334 36.5362 44.8415 27.4585C44.2238 26.4074 43.8452 25.1961 43.8452 23.8879C43.8452 21.1308 45.4365 18.7646 47.7292 17.6096L41.6502 10.2485C40.8161 9.2379 40.3555 7.95618 40.3555 6.63924C40.3555 3.53 42.8628 1 45.9425 1H47.211C49.8667 1 52.374 1.99122 54.3143 3.80289C56.258 1.98946 58.7497 1 61.2937 1C63.8743 1 66.4026 2.01763 68.2748 3.80113C70.2169 1.98946 72.7225 1 75.3764 1H75.5526C79.2343 1 82.2319 4.02297 82.2319 7.74138C82.2319 9.54072 81.5375 11.2327 80.2759 12.5056L75.092 17.7364C77.2556 18.9336 78.7422 21.2277 78.7422 23.8879ZM45.9423 4.52121C44.7854 4.52121 43.8449 5.47194 43.8449 6.63923C43.8449 7.1322 44.0177 7.61461 44.3335 7.9949L51.6427 16.8455H53.4818L50.9482 10.4562L54.1884 9.1481L57.2402 16.8455H59.5486V8.04244H63.0383V16.8455H65.3467L68.3967 9.14986L71.6369 10.458L69.1052 16.8455H71.0402L77.8085 10.0178C78.4104 9.41043 78.742 8.60055 78.742 7.74137C78.742 5.96491 77.3112 4.52121 75.5524 4.52121H75.3761C73.5126 4.52121 71.7591 5.25363 70.44 6.58289C69.2884 7.75017 67.2591 7.75193 66.104 6.58113C63.4414 3.89972 59.0583 3.98599 56.5701 6.49486C55.2406 7.8382 53.3003 7.75193 52.1452 6.58113C50.8278 5.25363 49.0743 4.52121 47.2108 4.52121H45.9423ZM50.8242 20.3667H71.7624C73.687 20.3667 75.2521 21.946 75.2521 23.8879C75.2521 25.8299 73.687 27.4092 71.7624 27.4092H50.8242C48.8996 27.4092 47.3345 25.8299 47.3345 23.8879C47.3345 21.946 48.8996 20.3667 50.8242 20.3667ZM24.6515 74.5936C24.6515 94.6575 38.3504 106.637 61.2934 106.637C84.2365 106.637 97.9353 94.6575 97.9353 74.5936C97.9353 57.1547 88.2165 38.2317 75.1912 29.9832C74.1739 30.5695 73.0153 30.9304 71.7625 30.9304H70.85L73.3835 37.3197L70.1433 38.6278L67.0916 30.9304H63.0383V37.9728H59.5486V30.9304H55.4953L52.4453 38.626L49.2051 37.3179L51.7369 30.9304H50.8243C49.5715 30.9304 48.4112 30.5695 47.3939 29.9832C34.3704 38.2317 24.6515 57.1565 24.6515 74.5936Z" fill="black"/>
<path d="M77.7459 27.4567L77.6166 27.3806L77.5447 27.5028L77.6626 27.5815L77.7459 27.4567ZM44.8415 27.4585L44.9247 27.5833L45.0426 27.5046L44.9708 27.3825L44.8415 27.4585ZM47.7292 17.6096L47.7967 17.7436L47.9646 17.659L47.8449 17.5141L47.7292 17.6096ZM41.6502 10.2485L41.5345 10.344L41.5345 10.344L41.6502 10.2485ZM54.3143 3.80289L54.2119 3.91253L54.3142 4.00808L54.4166 3.91257L54.3143 3.80289ZM68.2748 3.80113L68.1714 3.90974L68.2738 4.00727L68.3772 3.91082L68.2748 3.80113ZM80.2759 12.5056L80.1694 12.4L80.1694 12.4L80.2759 12.5056ZM75.092 17.7364L74.9854 17.6308L74.8459 17.7716L75.0194 17.8676L75.092 17.7364ZM44.3335 7.9949L44.4492 7.89938L44.4489 7.89907L44.3335 7.9949ZM51.6427 16.8455L51.527 16.941L51.572 16.9955H51.6427V16.8455ZM53.4818 16.8455V16.9955H53.7026L53.6212 16.7902L53.4818 16.8455ZM50.9482 10.4562L50.8921 10.3171L50.7538 10.3729L50.8088 10.5115L50.9482 10.4562ZM54.1884 9.1481L54.3279 9.09282L54.2722 8.9525L54.1323 9.00901L54.1884 9.1481ZM57.2402 16.8455L57.1007 16.9008L57.1383 16.9955H57.2402V16.8455ZM59.5486 16.8455V16.9955H59.6986V16.8455H59.5486ZM59.5486 8.04244V7.89244H59.3986V8.04244H59.5486ZM63.0383 8.04244H63.1883V7.89244H63.0383V8.04244ZM63.0383 16.8455H62.8883V16.9955H63.0383V16.8455ZM65.3467 16.8455V16.9955H65.4486L65.4862 16.9008L65.3467 16.8455ZM68.3967 9.14986L68.4529 9.01077L68.3129 8.95425L68.2573 9.09459L68.3967 9.14986ZM71.6369 10.458L71.7764 10.5133L71.8313 10.3747L71.6931 10.3189L71.6369 10.458ZM69.1052 16.8455L68.9657 16.7902L68.8843 16.9955H69.1052V16.8455ZM71.0402 16.8455V16.9955H71.1027L71.1467 16.9511L71.0402 16.8455ZM77.8085 10.0178L77.915 10.1234L77.915 10.1234L77.8085 10.0178ZM70.44 6.58289L70.3335 6.47723L70.3332 6.47754L70.44 6.58289ZM66.104 6.58113L66.2108 6.47578L66.2104 6.47544L66.104 6.58113ZM56.5701 6.49486L56.4636 6.38923L56.4635 6.38934L56.5701 6.49486ZM52.1452 6.58113L52.252 6.47578L52.2517 6.47547L52.1452 6.58113ZM75.1912 29.9832L75.2714 29.8565L75.1948 29.808L75.1163 29.8532L75.1912 29.9832ZM70.85 30.9304V30.7804H70.6291L70.7105 30.9857L70.85 30.9304ZM73.3835 37.3197L73.4397 37.4587L73.5779 37.4029L73.5229 37.2644L73.3835 37.3197ZM70.1433 38.6278L70.0039 38.6831L70.0595 38.8234L70.1995 38.7669L70.1433 38.6278ZM67.0916 30.9304L67.231 30.8751L67.1935 30.7804H67.0916V30.9304ZM63.0383 30.9304V30.7804H62.8883V30.9304H63.0383ZM63.0383 37.9728V38.1228H63.1883V37.9728H63.0383ZM59.5486 37.9728H59.3986V38.1228H59.5486V37.9728ZM59.5486 30.9304H59.6986V30.7804H59.5486V30.9304ZM55.4953 30.9304V30.7804H55.3934L55.3558 30.8751L55.4953 30.9304ZM52.4453 38.626L52.3891 38.7651L52.5291 38.8216L52.5847 38.6813L52.4453 38.626ZM49.2051 37.3179L49.0656 37.2626L49.0107 37.4012L49.1489 37.457L49.2051 37.3179ZM51.7369 30.9304L51.8763 30.9857L51.9577 30.7804H51.7369V30.9304ZM47.3939 29.9832L47.4688 29.8532L47.3903 29.8079L47.3137 29.8565L47.3939 29.9832ZM77.8752 27.5328C78.5049 26.463 78.8922 25.2257 78.8922 23.8879H78.5922C78.5922 25.1665 78.2222 26.3518 77.6166 27.3806L77.8752 27.5328ZM101.575 74.5936C101.575 56.3074 91.4834 36.4422 77.8291 27.3319L77.6626 27.5815C91.2246 36.6301 101.275 56.3964 101.275 74.5936H101.575ZM61.2937 110.308C73.6974 110.308 83.769 106.894 90.7418 100.714C97.7167 94.5334 101.575 85.5992 101.575 74.5936H101.275C101.275 85.5251 97.4452 94.3731 90.5428 100.49C83.6384 106.609 73.6442 110.008 61.2937 110.008V110.308ZM21.0121 74.5936C21.0121 85.5992 24.8707 94.5334 31.8456 100.714C38.8184 106.894 48.89 110.308 61.2937 110.308V110.008C48.9432 110.008 38.949 106.609 32.0446 100.49C25.1422 94.3731 21.3121 85.5251 21.3121 74.5936H21.0121ZM44.7582 27.3337C31.104 36.4422 21.0121 56.3091 21.0121 74.5936H21.3121C21.3121 56.3981 31.3628 36.6301 44.9247 27.5833L44.7582 27.3337ZM43.6952 23.8879C43.6952 25.2257 44.0825 26.463 44.7122 27.5345L44.9708 27.3825C44.3651 26.3518 43.9952 25.1665 43.9952 23.8879H43.6952ZM47.6617 17.4756C45.3211 18.6548 43.6952 21.0713 43.6952 23.8879H43.9952C43.9952 21.1904 45.5519 18.8744 47.7967 17.7436L47.6617 17.4756ZM41.5345 10.344L47.6136 17.7051L47.8449 17.5141L41.7658 10.153L41.5345 10.344ZM40.2055 6.63924C40.2055 7.99093 40.6782 9.30644 41.5345 10.344L41.7658 10.153C40.954 9.16937 40.5055 7.92142 40.5055 6.63924H40.2055ZM45.9425 0.85C42.7787 0.85 40.2055 3.44846 40.2055 6.63924H40.5055C40.5055 3.61154 42.947 1.15 45.9425 1.15V0.85ZM47.211 0.85H45.9425V1.15H47.211V0.85ZM54.4167 3.69326C52.4487 1.85571 49.9048 0.85 47.211 0.85V1.15C49.8286 1.15 52.2993 2.12673 54.2119 3.91253L54.4167 3.69326ZM61.2937 0.85C58.7105 0.85 56.1826 1.85469 54.212 3.69321L54.4166 3.91257C56.3335 2.12424 58.7889 1.15 61.2937 1.15V0.85ZM68.3783 3.69252C66.4784 1.88265 63.9131 0.85 61.2937 0.85V1.15C63.8355 1.15 66.3268 2.15262 68.1714 3.90974L68.3783 3.69252ZM75.3764 0.85C72.6844 0.85 70.1422 1.85394 68.1725 3.69145L68.3772 3.91082C70.2915 2.12499 72.7606 1.15 75.3764 1.15V0.85ZM75.5526 0.85H75.3764V1.15H75.5526V0.85ZM82.3819 7.74138C82.3819 3.9414 79.3184 0.85 75.5526 0.85V1.15C79.1501 1.15 82.0819 4.10454 82.0819 7.74138H82.3819ZM80.3825 12.6112C81.672 11.31 82.3819 9.58008 82.3819 7.74138H82.0819C82.0819 9.50137 81.4029 11.1553 80.1694 12.4L80.3825 12.6112ZM75.1985 17.842L80.3825 12.6112L80.1694 12.4L74.9854 17.6308L75.1985 17.842ZM78.8922 23.8879C78.8922 21.1699 77.3731 18.8272 75.1646 17.6051L75.0194 17.8676C77.138 19.04 78.5922 21.2854 78.5922 23.8879H78.8922ZM43.9949 6.63923C43.9949 5.55335 44.8697 4.67121 45.9423 4.67121V4.37121C44.7011 4.37121 43.6949 5.39054 43.6949 6.63923H43.9949ZM44.4489 7.89907C44.1556 7.54589 43.9949 7.09744 43.9949 6.63923H43.6949C43.6949 7.16696 43.8798 7.68332 44.2181 8.09073L44.4489 7.89907ZM51.7583 16.75L44.4492 7.89938L44.2178 8.09041L51.527 16.941L51.7583 16.75ZM53.4818 16.6955H51.6427V16.9955H53.4818V16.6955ZM50.8088 10.5115L53.3423 16.9008L53.6212 16.7902L51.0877 10.4009L50.8088 10.5115ZM54.1323 9.00901L50.8921 10.3171L51.0044 10.5953L54.2446 9.28719L54.1323 9.00901ZM57.3796 16.7902L54.3279 9.09282L54.049 9.20338L57.1007 16.9008L57.3796 16.7902ZM59.5486 16.6955H57.2402V16.9955H59.5486V16.6955ZM59.3986 8.04244V16.8455H59.6986V8.04244H59.3986ZM63.0383 7.89244H59.5486V8.19244H63.0383V7.89244ZM63.1883 16.8455V8.04244H62.8883V16.8455H63.1883ZM65.3467 16.6955H63.0383V16.9955H65.3467V16.6955ZM68.2573 9.09459L65.2073 16.7902L65.4862 16.9008L68.5362 9.20513L68.2573 9.09459ZM71.6931 10.3189L68.4529 9.01077L68.3406 9.28895L71.5808 10.5971L71.6931 10.3189ZM69.2446 16.9008L71.7764 10.5133L71.4975 10.4027L68.9657 16.7902L69.2446 16.9008ZM71.0402 16.6955H69.1052V16.9955H71.0402V16.6955ZM77.7019 9.91224L70.9337 16.7399L71.1467 16.9511L77.915 10.1234L77.7019 9.91224ZM78.592 7.74137C78.592 8.56132 78.2758 9.33316 77.7019 9.91225L77.915 10.1234C78.545 9.4877 78.892 8.63978 78.892 7.74137H78.592ZM75.5524 4.67121C77.227 4.67121 78.592 6.04643 78.592 7.74137H78.892C78.892 5.8834 77.3954 4.37121 75.5524 4.37121V4.67121ZM75.3761 4.67121H75.5524V4.37121H75.3761V4.67121ZM70.5464 6.68855C71.8375 5.38751 73.5528 4.67121 75.3761 4.67121V4.37121C73.4724 4.37121 71.6806 5.11975 70.3335 6.47723L70.5464 6.68855ZM65.9972 6.68648C67.2111 7.91682 69.3364 7.91506 70.5467 6.68824L70.3332 6.47754C69.2403 7.58529 67.3071 7.58705 66.2108 6.47578L65.9972 6.68648ZM56.6766 6.60048C59.1061 4.15082 63.3936 4.06445 65.9976 6.68682L66.2104 6.47544C63.4892 3.73499 59.0105 3.82116 56.4636 6.38923L56.6766 6.60048ZM52.0384 6.68648C53.2523 7.91691 55.2886 8.00294 56.6768 6.60038L56.4635 6.38934C55.1926 7.67347 53.3482 7.58695 52.252 6.47578L52.0384 6.68648ZM47.2108 4.67121C49.0341 4.67121 50.7494 5.38753 52.0387 6.68679L52.2517 6.47547C50.9063 5.11973 49.1144 4.37121 47.2108 4.37121V4.67121ZM45.9423 4.67121H47.2108V4.37121H45.9423V4.67121ZM71.7624 20.2167H50.8242V20.5167H71.7624V20.2167ZM75.4021 23.8879C75.4021 21.8644 73.7711 20.2167 71.7624 20.2167V20.5167C73.6029 20.5167 75.1021 22.0276 75.1021 23.8879H75.4021ZM71.7624 27.5592C73.7711 27.5592 75.4021 25.9115 75.4021 23.8879H75.1021C75.1021 25.7483 73.6029 27.2592 71.7624 27.2592V27.5592ZM50.8242 27.5592H71.7624V27.2592H50.8242V27.5592ZM47.1845 23.8879C47.1845 25.9115 48.8155 27.5592 50.8242 27.5592V27.2592C48.9838 27.2592 47.4845 25.7483 47.4845 23.8879H47.1845ZM50.8242 20.2167C48.8155 20.2167 47.1845 21.8644 47.1845 23.8879H47.4845C47.4845 22.0276 48.9838 20.5167 50.8242 20.5167V20.2167ZM61.2934 106.487C49.8466 106.487 40.7252 103.498 34.4676 98.0262C28.2126 92.5563 24.8015 84.5894 24.8015 74.5936H24.5015C24.5015 84.6616 27.9399 92.7163 34.2701 98.252C40.5977 103.785 49.7972 106.787 61.2934 106.787V106.487ZM97.7853 74.5936C97.7853 84.5894 94.3742 92.5563 88.1193 98.0262C81.8616 103.498 72.7402 106.487 61.2934 106.487V106.787C72.7896 106.787 81.9892 103.785 88.3167 98.252C94.6469 92.7163 98.0853 84.6616 98.0853 74.5936H97.7853ZM75.1109 30.1099C88.087 38.3272 97.7853 57.1989 97.7853 74.5936H98.0853C98.0853 57.1105 88.3459 38.1361 75.2714 29.8565L75.1109 30.1099ZM71.7625 31.0804C73.0449 31.0804 74.2291 30.7108 75.2661 30.1131L75.1163 29.8532C74.1188 30.4281 72.9858 30.7804 71.7625 30.7804V31.0804ZM70.85 31.0804H71.7625V30.7804H70.85V31.0804ZM73.5229 37.2644L70.9894 30.8751L70.7105 30.9857L73.2441 37.3749L73.5229 37.2644ZM70.1995 38.7669L73.4397 37.4587L73.3273 37.1806L70.0872 38.4887L70.1995 38.7669ZM66.9521 30.9857L70.0039 38.6831L70.2828 38.5725L67.231 30.8751L66.9521 30.9857ZM63.0383 31.0804H67.0916V30.7804H63.0383V31.0804ZM63.1883 37.9728V30.9304H62.8883V37.9728H63.1883ZM59.5486 38.1228H63.0383V37.8228H59.5486V38.1228ZM59.3986 30.9304V37.9728H59.6986V30.9304H59.3986ZM55.4953 31.0804H59.5486V30.7804H55.4953V31.0804ZM52.5847 38.6813L55.6347 30.9857L55.3558 30.8751L52.3058 38.5708L52.5847 38.6813ZM49.1489 37.457L52.3891 38.7651L52.5014 38.4869L49.2612 37.1788L49.1489 37.457ZM51.5974 30.8751L49.0656 37.2626L49.3445 37.3732L51.8763 30.9857L51.5974 30.8751ZM50.8243 31.0804H51.7369V30.7804H50.8243V31.0804ZM47.319 30.1131C48.3561 30.7108 49.542 31.0804 50.8243 31.0804V30.7804C49.6011 30.7804 48.4663 30.4281 47.4688 29.8532L47.319 30.1131ZM24.8015 74.5936C24.8015 57.2006 34.4998 38.3272 47.4742 30.1099L47.3137 29.8565C34.2409 38.1361 24.5015 57.1123 24.5015 74.5936H24.8015Z" fill="black"/>
<path fill-rule="evenodd" clip-rule="evenodd" d="M34.0039 70.0263C34.0039 54.9789 46.246 42.7368 61.2934 42.7368C76.3408 42.7368 88.5829 54.9789 88.5829 70.0263C88.5829 85.0737 76.3408 97.3158 61.2934 97.3158C46.246 97.3158 34.0039 85.0737 34.0039 70.0263ZM37.642 70.0263C37.642 83.067 48.2522 93.6772 61.2929 93.6772C74.3336 93.6772 84.9438 83.067 84.9438 70.0263C84.9438 56.9856 74.3336 46.3754 61.2929 46.3754C48.2522 46.3754 37.642 56.9856 37.642 70.0263Z" fill="black"/>
<path d="M61.2934 42.5868C46.1631 42.5868 33.8539 54.896 33.8539 70.0263H34.1539C34.1539 55.0617 46.3288 42.8868 61.2934 42.8868V42.5868ZM88.7329 70.0263C88.7329 54.896 76.4236 42.5868 61.2934 42.5868V42.8868C76.258 42.8868 88.4329 55.0617 88.4329 70.0263H88.7329ZM61.2934 97.4658C76.4236 97.4658 88.7329 85.1566 88.7329 70.0263H88.4329C88.4329 84.9909 76.258 97.1658 61.2934 97.1658V97.4658ZM33.8539 70.0263C33.8539 85.1566 46.1631 97.4658 61.2934 97.4658V97.1658C46.3288 97.1658 34.1539 84.9909 34.1539 70.0263H33.8539ZM61.2929 93.5272C48.335 93.5272 37.792 82.9842 37.792 70.0263H37.492C37.492 83.1499 48.1693 93.8272 61.2929 93.8272V93.5272ZM84.7938 70.0263C84.7938 82.9842 74.2508 93.5272 61.2929 93.5272V93.8272C74.4165 93.8272 85.0938 83.1499 85.0938 70.0263H84.7938ZM61.2929 46.5254C74.2508 46.5254 84.7938 57.0684 84.7938 70.0263H85.0938C85.0938 56.9027 74.4165 46.2254 61.2929 46.2254V46.5254ZM37.792 70.0263C37.792 57.0684 48.335 46.5254 61.2929 46.5254V46.2254C48.1693 46.2254 37.492 56.9027 37.492 70.0263H37.792Z" fill="black"/>
<path d="M69.1586 64.6086C69.0515 64.4991 68.9144 64.4445 68.7477 64.4445H65.691C65.4883 63.4355 65.1069 62.5596 64.5469 61.8178H68.7118C68.8789 61.8178 69.0156 61.7631 69.1231 61.6539C69.2298 61.5445 69.2834 61.4045 69.2834 61.2343V59.3733C69.2834 59.2029 69.2299 59.0632 69.1231 58.9537C69.0155 58.8444 68.8788 58.7896 68.7116 58.7896H53.839C53.6721 58.7896 53.5352 58.8444 53.4279 58.9536C53.3209 59.0631 53.2671 59.2029 53.2671 59.3732V61.7993C53.2671 61.9574 53.3237 62.0942 53.4369 62.2097C53.5501 62.3252 53.6841 62.383 53.839 62.383H56.4311C58.9455 62.383 60.5424 63.0699 61.2216 64.4442H53.839C53.6721 64.4442 53.535 64.4988 53.4279 64.6083C53.3209 64.7178 53.2671 64.8575 53.2671 65.0278V66.8886C53.2671 67.0588 53.3206 67.1988 53.4279 67.308C53.5352 67.4175 53.6724 67.472 53.839 67.472H61.4723C61.21 68.4695 60.5992 69.2294 59.6398 69.7524C58.6802 70.2754 57.4143 70.5369 55.8412 70.5369H53.839C53.6841 70.5369 53.5501 70.5948 53.4369 70.7102C53.3236 70.8258 53.2671 70.9626 53.2671 71.1206V73.4375C53.2671 73.5958 53.3206 73.7296 53.4279 73.8389C55.7159 76.3197 58.6834 79.7914 62.33 84.2549C62.4374 84.4009 62.5863 84.4738 62.777 84.4738H66.2627C66.5132 84.4738 66.6861 84.3646 66.7812 84.1453C66.9003 83.9264 66.877 83.7196 66.7096 83.525C63.2302 79.1712 60.495 75.9121 58.5047 73.7475C60.5307 73.5043 62.1753 72.8353 63.4386 71.741C64.7017 70.6466 65.4703 69.2235 65.7446 67.4723H68.7477C68.9144 67.4723 69.0516 67.4178 69.1586 67.3083C69.266 67.1991 69.3197 67.0592 69.3197 66.889V65.0284C69.3197 64.8578 69.266 64.7181 69.1586 64.6086Z" fill="black"/>
</svg>
