<svg width="66" height="66" viewBox="0 0 66 66" fill="none" xmlns="http://www.w3.org/2000/svg">
<path d="M29.7002 6.6001C27.8777 6.6001 26.4002 8.07756 26.4002 9.9001C26.4002 11.7226 27.8777 13.2001 29.7002 13.2001H36.3002C38.1227 13.2001 39.6002 11.7226 39.6002 9.9001C39.6002 8.07756 38.1227 6.6001 36.3002 6.6001H29.7002Z" fill="#2FB492"/>
<path fill-rule="evenodd" clip-rule="evenodd" d="M13.2002 16.5001C13.2002 12.855 16.1551 9.9001 19.8002 9.9001C19.8002 15.3677 24.2326 19.8001 29.7002 19.8001H36.3002C41.7678 19.8001 46.2002 15.3677 46.2002 9.9001C49.8453 9.9001 52.8002 12.855 52.8002 16.5001V52.8001C52.8002 56.4452 49.8453 59.4001 46.2002 59.4001H19.8002C16.1551 59.4001 13.2002 56.4452 13.2002 52.8001V16.5001ZM45.2336 35.3336C46.5224 34.0448 46.5224 31.9554 45.2336 30.6666C43.9449 29.3779 41.8555 29.3779 40.5667 30.6666L29.7002 41.5332L25.4336 37.2666C24.1449 35.9779 22.0555 35.9779 20.7667 37.2666C19.478 38.5554 19.478 40.6448 20.7667 41.9336L27.3667 48.5336C28.6555 49.8223 30.7449 49.8223 32.0336 48.5336L45.2336 35.3336Z" fill="#2FB492"/>
</svg>
