<svg width="113" height="122" viewBox="0 0 113 122" fill="none" xmlns="http://www.w3.org/2000/svg">
<ellipse cx="56.88" cy="111.959" rx="55.88" ry="9.31333" fill="#1D1939"/>
<path fill-rule="evenodd" clip-rule="evenodd" d="M60.2583 88.8496C60.2583 87.7952 61.9957 87.2707 62.7008 88.0547C65.5915 91.2683 71.0673 95.1298 79.2308 91.8795C87.4734 88.5977 84.8188 81.1212 91.5995 76.3402C101.152 69.6048 110.896 70.9804 110.896 70.9804V110.096H71.2583C65.1832 110.096 60.2583 105.172 60.2583 99.0964V88.8496Z" fill="#00C5B3"/>
<path d="M95.1138 60.0859L93.1543 63.2525C99.37 67.1026 101.585 75.5423 101.585 82.1585H105.31C105.31 74.5402 102.633 64.7389 95.1138 60.0859V60.0859Z" fill="black"/>
<path fill-rule="evenodd" clip-rule="evenodd" d="M75.5065 40.1171L101.26 55.3742C108.428 59.7655 112.787 67.5768 112.76 75.9828V108.235C112.76 110.292 111.092 111.96 109.035 111.96H75.5065C66.2523 111.95 58.7528 104.45 58.7425 95.1962V92.1582L44.6962 75.6922C44.4055 75.3837 44.1378 75.0544 43.8952 74.7069H25.2145C22.1284 74.7069 19.6265 72.205 19.6265 69.1189V61.0032L17.2926 61.5993C16.3131 61.8468 15.3148 61.2683 15.0425 60.2954L13.7945 55.866L9.21795 55.404C8.21195 55.3056 7.46802 54.4228 7.54155 53.4147L7.87683 48.8251L3.7324 46.8283C2.82185 46.3901 2.42679 45.3058 2.84204 44.3845L4.7252 40.1898L1.527 36.8836C0.824333 36.1606 0.824333 35.0099 1.527 34.287L4.7252 30.9919L2.84204 26.7954C2.42801 25.8746 2.82288 24.7916 3.7324 24.3534L7.86938 22.3585L7.53596 17.7689C7.46243 16.7607 8.20636 15.8779 9.21236 15.7795L13.7889 15.3176L15.0369 10.89C15.3092 9.91711 16.3075 9.33864 17.287 9.58617L19.6265 10.1766V5.7882C19.6265 2.70203 22.1284 0.200195 25.2145 0.200195H69.9185C73.0047 0.200195 75.5065 2.70203 75.5065 5.7882V40.1171ZM15.4233 52.287C16.1847 52.364 16.8216 52.8989 17.0289 53.6356L18.1279 57.5398L22.06 56.5451C22.209 56.5067 22.3624 56.4873 22.5163 56.4874C23.1141 56.488 23.6754 56.7755 24.0251 57.2604L26.4 60.5498L29.7528 58.2643C30.3855 57.8333 31.2174 57.8333 31.8501 58.2643L35.2029 60.5498L37.5667 57.2697C38.013 56.6507 38.7917 56.3665 39.5318 56.5526L43.4639 57.5472L44.5628 53.6356C44.7702 52.8989 45.407 52.364 46.1685 52.287L50.2049 51.881L49.9106 47.8334C49.855 47.0718 50.2699 46.3535 50.9574 46.021L54.6101 44.2608L52.9448 40.5634C52.634 39.8648 52.7817 39.0472 53.3174 38.5015L56.143 35.5901L53.3192 32.6881C52.7828 32.142 52.635 31.3234 52.9467 30.6242L54.6119 26.9287L50.9592 25.1685C50.2711 24.8358 49.8561 24.1165 49.9124 23.3542L50.2086 19.3085L46.1722 18.9006C45.4108 18.8236 44.7739 18.2887 44.5666 17.552L43.4676 13.6404L39.543 14.6351C38.8032 14.8216 38.0246 14.5382 37.5778 13.9198L35.2029 10.6304L31.8501 12.9159C31.2174 13.3469 30.3855 13.3469 29.7528 12.9159L26.4 10.6304L24.0269 13.9105C23.5807 14.5295 22.8019 14.8137 22.0618 14.6277L18.1297 13.633L17.0308 17.5446C16.8234 18.2813 16.1866 18.8162 15.4251 18.8932L11.3888 19.2992L11.6831 23.3468C11.7386 24.1084 11.3237 24.8267 10.6362 25.1592L6.99286 26.9194L8.65808 30.6168C8.96892 31.3154 8.82119 32.1331 8.28555 32.6788L5.45988 35.5901L8.27623 38.5015C8.81188 39.0472 8.9596 39.8648 8.64877 40.5634L6.98354 44.259L10.6362 46.0192C11.3243 46.3519 11.7394 47.0712 11.6831 47.8334L11.3869 51.8791L15.4233 52.287ZM25.2142 70.9817C24.1854 70.9817 23.3515 70.1477 23.3515 69.119V62.6909L24.4412 64.1997C25.0312 65.0185 26.1661 65.2184 27.0005 64.6505L30.8022 62.0595L34.6039 64.6486C35.4382 65.2165 36.5731 65.0167 37.1632 64.1978L39.8547 60.4725L44.3251 61.5901C45.3047 61.8376 46.3029 61.2592 46.5752 60.2862L47.8232 55.8587L52.3998 55.3967C53.4058 55.2983 54.1497 54.4155 54.0762 53.4074L53.7428 48.8178L57.8872 46.8191C58.7967 46.381 59.1916 45.298 58.7776 44.3772L56.8795 40.1899L60.0777 36.8949C60.7804 36.172 60.7804 35.0212 60.0777 34.2983L56.8795 30.9921L58.7701 26.7973C59.1854 25.8761 58.7903 24.7918 57.8798 24.3535L53.7279 22.3661L54.0631 17.7765C54.1367 16.7683 53.3928 15.8855 52.3867 15.7871L47.8102 15.3252L46.5622 10.8958C46.2899 9.92283 45.2916 9.34436 44.3121 9.5919L39.8417 10.7207L37.1483 6.99534C36.5626 6.18178 35.4381 5.97763 34.6039 6.5334L30.8022 9.1225L27.0005 6.5334C26.1661 5.96545 25.0312 6.16534 24.4412 6.98416L23.3515 8.49106V5.78833C23.3515 4.75961 24.1854 3.92566 25.2142 3.92566H69.9182C70.9469 3.92566 71.7808 4.75961 71.7808 5.78833V69.119C71.7808 70.1477 70.9469 70.9817 69.9182 70.9817H66.5523L57.9729 62.6239C54.3322 58.9903 48.4371 58.9903 44.7964 62.6239C42.6107 64.8137 41.6473 67.9416 42.2222 70.9817H25.2142ZM75.5077 108.234H109.036V75.9816C109.061 68.8792 105.383 62.2769 99.3312 58.56L75.5077 44.4466V69.1176C75.4999 72.0326 73.2478 74.4495 70.3406 74.6628L82.3995 86.4106L79.7918 89.078L55.3573 65.2749C53.1481 63.144 49.6509 63.1357 47.4317 65.2563C45.2525 67.4423 45.2525 70.9793 47.4317 73.1652L62.0238 90.2607C62.3113 90.5979 62.4691 91.0265 62.469 91.4696V95.195C62.4772 102.393 68.31 108.225 75.5077 108.234Z" fill="black"/>
<path d="M101.26 55.3742L101.364 55.2037L101.362 55.2022L101.26 55.3742ZM75.5065 40.1171H75.3065V40.2311L75.4046 40.2892L75.5065 40.1171ZM112.76 75.9828L112.56 75.9822V75.9828H112.76ZM75.5065 111.96L75.5063 112.16H75.5065V111.96ZM58.7425 95.1962L58.5425 95.1962L58.5425 95.1964L58.7425 95.1962ZM58.7425 92.1582H58.9425V92.0845L58.8947 92.0284L58.7425 92.1582ZM44.6962 75.6922L44.8485 75.5622L44.8417 75.5551L44.6962 75.6922ZM43.8952 74.7069L44.0592 74.5924L43.9995 74.5069H43.8952V74.7069ZM19.6265 61.0032H19.8265V60.7457L19.577 60.8094L19.6265 61.0032ZM17.2926 61.5993L17.3416 61.7932L17.3421 61.7931L17.2926 61.5993ZM15.0425 60.2954L15.2351 60.2415L15.235 60.2412L15.0425 60.2954ZM13.7945 55.866L13.987 55.8118L13.9501 55.6807L13.8146 55.667L13.7945 55.866ZM9.21795 55.404L9.23804 55.2051L9.23742 55.205L9.21795 55.404ZM7.54155 53.4147L7.34208 53.4001L7.34208 53.4002L7.54155 53.4147ZM7.87683 48.8251L8.0763 48.8397L8.08621 48.704L7.96364 48.6449L7.87683 48.8251ZM3.7324 46.8283L3.81921 46.6482L3.81913 46.6481L3.7324 46.8283ZM2.84204 44.3845L3.02438 44.4667L3.0245 44.4664L2.84204 44.3845ZM4.7252 40.1898L4.90766 40.2717L4.96314 40.1481L4.86895 40.0507L4.7252 40.1898ZM1.527 36.8836L1.67075 36.7445L1.67042 36.7442L1.527 36.8836ZM1.527 34.287L1.67042 34.4264L1.67052 34.4263L1.527 34.287ZM4.7252 30.9919L4.86872 31.1312L4.96323 31.0339L4.90767 30.9101L4.7252 30.9919ZM2.84204 26.7954L3.02452 26.7135L3.02445 26.7133L2.84204 26.7954ZM3.7324 24.3534L3.81921 24.5336L3.81927 24.5335L3.7324 24.3534ZM7.86938 22.3585L7.95625 22.5386L8.07871 22.4796L8.06886 22.344L7.86938 22.3585ZM7.53596 17.7689L7.73544 17.7544L7.73543 17.7543L7.53596 17.7689ZM9.21236 15.7795L9.23183 15.9786L9.23245 15.9785L9.21236 15.7795ZM13.7889 15.3176L13.809 15.5166L13.9445 15.5029L13.9814 15.3719L13.7889 15.3176ZM15.0369 10.89L15.2294 10.9443L15.2295 10.9439L15.0369 10.89ZM17.287 9.58617L17.238 9.78008L17.2381 9.78009L17.287 9.58617ZM19.6265 10.1766L19.5776 10.3706L19.8265 10.4334V10.1766H19.6265ZM17.0289 53.6356L16.8364 53.6898L16.8364 53.6898L17.0289 53.6356ZM15.4233 52.287L15.4434 52.0881L15.4434 52.0881L15.4233 52.287ZM18.1279 57.5398L17.9354 57.594L17.9881 57.7814L18.1769 57.7337L18.1279 57.5398ZM22.06 56.5451L22.109 56.739L22.1099 56.7388L22.06 56.5451ZM22.5163 56.4874L22.5165 56.2874L22.5164 56.2874L22.5163 56.4874ZM24.0251 57.2604L23.8629 57.3774L23.8629 57.3774L24.0251 57.2604ZM26.4 60.5498L26.2378 60.6669L26.3518 60.8247L26.5126 60.7151L26.4 60.5498ZM29.7528 58.2643L29.6402 58.0991L29.6401 58.0991L29.7528 58.2643ZM31.8501 58.2643L31.9628 58.0991L31.9627 58.0991L31.8501 58.2643ZM35.2029 60.5498L35.0903 60.7151L35.2513 60.8248L35.3652 60.6668L35.2029 60.5498ZM37.5667 57.2697L37.4044 57.1527L37.4044 57.1528L37.5667 57.2697ZM39.5318 56.5526L39.5808 56.3587L39.5805 56.3586L39.5318 56.5526ZM43.4639 57.5472L43.4148 57.7411L43.6037 57.7889L43.6564 57.6013L43.4639 57.5472ZM44.5628 53.6356L44.3703 53.5814L44.3703 53.5815L44.5628 53.6356ZM46.1685 52.287L46.1484 52.0881L46.1483 52.0881L46.1685 52.287ZM50.2049 51.881L50.2249 52.08L50.4184 52.0605L50.4043 51.8665L50.2049 51.881ZM49.9106 47.8334L50.11 47.8189L50.11 47.8189L49.9106 47.8334ZM50.9574 46.021L50.8706 45.8409L50.8703 45.841L50.9574 46.021ZM54.6101 44.2608L54.6969 44.441L54.8725 44.3564L54.7924 44.1787L54.6101 44.2608ZM52.9448 40.5634L52.7621 40.6447L52.7625 40.6456L52.9448 40.5634ZM53.3174 38.5015L53.4601 38.6416L53.4609 38.6407L53.3174 38.5015ZM56.143 35.5901L56.2866 35.7294L56.4219 35.5899L56.2864 35.4506L56.143 35.5901ZM53.3192 32.6881L53.4626 32.5486L53.4619 32.5479L53.3192 32.6881ZM52.9467 30.6242L52.7644 30.5421L52.764 30.5428L52.9467 30.6242ZM54.6119 26.9287L54.7943 27.0109L54.8743 26.8332L54.6987 26.7485L54.6119 26.9287ZM50.9592 25.1685L50.8722 25.3485L50.8724 25.3487L50.9592 25.1685ZM49.9124 23.3542L50.1119 23.369L50.1119 23.3688L49.9124 23.3542ZM50.2086 19.3085L50.4081 19.3231L50.4223 19.1291L50.2287 19.1095L50.2086 19.3085ZM46.1722 18.9006L46.1521 19.0996L46.1521 19.0996L46.1722 18.9006ZM44.5666 17.552L44.374 17.6061L44.374 17.6062L44.5666 17.552ZM43.4676 13.6404L43.6601 13.5863L43.6074 13.3987L43.4185 13.4466L43.4676 13.6404ZM39.543 14.6351L39.5918 14.829L39.5921 14.829L39.543 14.6351ZM37.5778 13.9198L37.4157 14.0369L37.4157 14.037L37.5778 13.9198ZM35.2029 10.6304L35.3651 10.5133L35.2511 10.3555L35.0903 10.4651L35.2029 10.6304ZM31.8501 12.9159L31.9627 13.0812L31.9628 13.0811L31.8501 12.9159ZM29.7528 12.9159L29.6401 13.0811L29.6402 13.0812L29.7528 12.9159ZM26.4 10.6304L26.5126 10.4651L26.3519 10.3556L26.2379 10.5131L26.4 10.6304ZM24.0269 13.9105L23.8649 13.7933L23.8647 13.7936L24.0269 13.9105ZM22.0618 14.6277L22.0128 14.8215L22.0131 14.8216L22.0618 14.6277ZM18.1297 13.633L18.1788 13.4391L17.9899 13.3913L17.9372 13.5789L18.1297 13.633ZM17.0308 17.5446L17.2233 17.5988L17.2233 17.5987L17.0308 17.5446ZM15.4251 18.8932L15.4452 19.0922L15.4453 19.0921L15.4251 18.8932ZM11.3888 19.2992L11.3687 19.1002L11.1752 19.1197L11.1893 19.3137L11.3888 19.2992ZM11.6831 23.3468L11.4836 23.3613L11.4836 23.3613L11.6831 23.3468ZM10.6362 25.1592L10.7232 25.3393L10.7233 25.3392L10.6362 25.1592ZM6.99286 26.9194L6.90585 26.7393L6.73055 26.824L6.8105 27.0015L6.99286 26.9194ZM8.65808 30.6168L8.84081 30.5355L8.84044 30.5347L8.65808 30.6168ZM8.28555 32.6788L8.14282 32.5387L8.14203 32.5395L8.28555 32.6788ZM5.45988 35.5901L5.31637 35.4508L5.18139 35.5899L5.31614 35.7292L5.45988 35.5901ZM8.27623 38.5015L8.13248 38.6405L8.1335 38.6416L8.27623 38.5015ZM8.64877 40.5634L8.83111 40.6456L8.8315 40.6447L8.64877 40.5634ZM6.98354 44.259L6.8012 44.1768L6.72112 44.3545L6.89672 44.4391L6.98354 44.259ZM10.6362 46.0192L10.7233 45.8391L10.7231 45.839L10.6362 46.0192ZM11.6831 47.8334L11.4836 47.8187L11.4836 47.8188L11.6831 47.8334ZM11.3869 51.8791L11.1874 51.8645L11.1732 52.0585L11.3668 52.0781L11.3869 51.8791ZM23.3515 62.6909L23.5136 62.5738L23.1515 62.0724V62.6909H23.3515ZM24.4412 64.1997L24.6034 64.0828L24.6033 64.0826L24.4412 64.1997ZM27.0005 64.6505L27.113 64.8158L27.1131 64.8157L27.0005 64.6505ZM30.8022 62.0595L30.9147 61.8942L30.8021 61.8175L30.6895 61.8942L30.8022 62.0595ZM34.6039 64.6486L34.4913 64.8139L34.4913 64.8139L34.6039 64.6486ZM37.1632 64.1978L37.0011 64.0807L37.0009 64.0809L37.1632 64.1978ZM39.8547 60.4725L39.9032 60.2785L39.7719 60.2456L39.6926 60.3554L39.8547 60.4725ZM44.3251 61.5901L44.3741 61.3962L44.3736 61.3961L44.3251 61.5901ZM46.5752 60.2862L46.3827 60.232L46.3826 60.2323L46.5752 60.2862ZM47.8232 55.8587L47.8031 55.6597L47.6677 55.6734L47.6307 55.8044L47.8232 55.8587ZM52.3998 55.3967L52.3803 55.1977L52.3797 55.1977L52.3998 55.3967ZM54.0762 53.4074L53.8767 53.4219L53.8767 53.422L54.0762 53.4074ZM53.7428 48.8178L53.6559 48.6376L53.5334 48.6967L53.5433 48.8323L53.7428 48.8178ZM57.8872 46.8191L57.8004 46.639L57.8003 46.639L57.8872 46.8191ZM58.7776 44.3772L58.96 44.2952L58.9597 44.2946L58.7776 44.3772ZM56.8795 40.1899L56.736 40.0506L56.6411 40.1484L56.6973 40.2725L56.8795 40.1899ZM60.0777 36.8949L59.9343 36.7555L59.9342 36.7556L60.0777 36.8949ZM60.0777 34.2983L59.9339 34.4374L59.9343 34.4377L60.0777 34.2983ZM56.8795 30.9921L56.6972 30.9099L56.6414 31.0336L56.7358 31.1311L56.8795 30.9921ZM58.7701 26.7973L58.5878 26.7152L58.5878 26.7152L58.7701 26.7973ZM57.8798 24.3535L57.9665 24.1733L57.9661 24.1731L57.8798 24.3535ZM53.7279 22.3661L53.5284 22.3515L53.5185 22.4876L53.6415 22.5465L53.7279 22.3661ZM54.0631 17.7765L54.2626 17.791L54.2626 17.791L54.0631 17.7765ZM52.3867 15.7871L52.3667 15.9861L52.3673 15.9862L52.3867 15.7871ZM47.8102 15.3252L47.6177 15.3794L47.6546 15.5105L47.7901 15.5242L47.8102 15.3252ZM46.5622 10.8958L46.3696 10.9497L46.3697 10.95L46.5622 10.8958ZM44.3121 9.5919L44.3611 9.78581L44.3611 9.7858L44.3121 9.5919ZM39.8417 10.7207L39.6796 10.8379L39.7591 10.9478L39.8907 10.9146L39.8417 10.7207ZM37.1483 6.99534L36.986 7.11219L36.9862 7.11252L37.1483 6.99534ZM34.6039 6.5334L34.493 6.36694L34.4913 6.36809L34.6039 6.5334ZM30.8022 9.1225L30.6896 9.28781L30.8022 9.36448L30.9147 9.28781L30.8022 9.1225ZM27.0005 6.5334L27.113 6.36809L27.113 6.36807L27.0005 6.5334ZM24.4412 6.98416L24.6032 7.10136L24.6034 7.10109L24.4412 6.98416ZM23.3515 8.49106H23.1515V9.10896L23.5136 8.60825L23.3515 8.49106ZM66.5523 70.9817L66.4128 71.1249L66.471 71.1817H66.5523V70.9817ZM57.9729 62.6239L57.8316 62.7654L57.8333 62.7671L57.9729 62.6239ZM44.7964 62.6239L44.6551 62.4823L44.6548 62.4826L44.7964 62.6239ZM42.2222 70.9817V71.1817H42.4635L42.4187 70.9445L42.2222 70.9817ZM109.036 108.234V108.434H109.236V108.234H109.036ZM75.5077 108.234L75.5074 108.434H75.5077V108.234ZM109.036 75.9816L108.836 75.9808V75.9816H109.036ZM99.3312 58.56L99.4358 58.3896L99.4331 58.388L99.3312 58.56ZM75.5077 44.4466L75.6096 44.2745L75.3077 44.0957V44.4466H75.5077ZM75.5077 69.1176L75.7077 69.1182V69.1176H75.5077ZM70.3406 74.6628L70.326 74.4633L69.8827 74.4958L70.2011 74.806L70.3406 74.6628ZM82.3995 86.4106L82.5425 86.5504L82.6826 86.4072L82.5391 86.2674L82.3995 86.4106ZM79.7918 89.078L79.6522 89.2212L79.7952 89.3605L79.9348 89.2178L79.7918 89.078ZM55.3573 65.2749L55.4969 65.1317L55.4962 65.131L55.3573 65.2749ZM47.4317 65.2563L47.2935 65.1117L47.2901 65.1151L47.4317 65.2563ZM47.4317 73.1652L47.5838 73.0354L47.5788 73.0295L47.5733 73.024L47.4317 73.1652ZM62.0238 90.2607L62.176 90.131L62.1759 90.1309L62.0238 90.2607ZM62.469 91.4696L62.269 91.4696V91.4696H62.469ZM62.469 95.195H62.269L62.269 95.1952L62.469 95.195ZM101.362 55.2022L75.6085 39.9451L75.4046 40.2892L101.158 55.5463L101.362 55.2022ZM112.96 75.9834C112.987 67.5077 108.592 59.6314 101.364 55.2037L101.155 55.5448C108.264 59.8995 112.586 67.646 112.56 75.9822L112.96 75.9834ZM112.96 108.235V75.9828H112.56V108.235H112.96ZM109.035 112.16C111.202 112.16 112.96 110.403 112.96 108.235H112.56C112.56 110.182 110.982 111.76 109.035 111.76V112.16ZM75.5065 112.16H109.035V111.76H75.5065V112.16ZM58.5425 95.1964C58.5529 104.561 66.1418 112.15 75.5063 112.16L75.5068 111.76C66.3628 111.75 58.9527 104.34 58.9425 95.196L58.5425 95.1964ZM58.5425 92.1582V95.1962H58.9425V92.1582H58.5425ZM44.544 75.822L58.5904 92.288L58.8947 92.0284L44.8483 75.5624L44.544 75.822ZM43.7312 74.8213C43.9794 75.1769 44.2533 75.5138 44.5506 75.8294L44.8417 75.5551C44.5578 75.2537 44.2962 74.9319 44.0592 74.5924L43.7312 74.8213ZM25.2145 74.9069H43.8952V74.5069H25.2145V74.9069ZM19.4265 69.1189C19.4265 72.3155 22.0179 74.9069 25.2145 74.9069V74.5069C22.2388 74.5069 19.8265 72.0946 19.8265 69.1189H19.4265ZM19.4265 61.0032V69.1189H19.8265V61.0032H19.4265ZM17.3421 61.7931L19.676 61.197L19.577 60.8094L17.2431 61.4055L17.3421 61.7931ZM14.8499 60.3493C15.1515 61.4267 16.2569 62.0673 17.3416 61.7932L17.2436 61.4054C16.3693 61.6263 15.4782 61.11 15.2351 60.2415L14.8499 60.3493ZM13.602 55.9202L14.85 60.3496L15.235 60.2412L13.987 55.8118L13.602 55.9202ZM9.19787 55.603L13.7744 56.065L13.8146 55.667L9.23804 55.2051L9.19787 55.603ZM7.34208 53.4002C7.26065 54.5165 8.08446 55.4941 9.19848 55.6031L9.23742 55.205C8.33943 55.1172 7.67538 54.3292 7.74102 53.4293L7.34208 53.4002ZM7.67736 48.8105L7.34208 53.4001L7.74102 53.4293L8.0763 48.8397L7.67736 48.8105ZM3.64559 47.0085L7.79002 49.0053L7.96364 48.6449L3.81921 46.6482L3.64559 47.0085ZM2.65971 44.3023C2.19987 45.3225 2.63735 46.5233 3.64567 47.0085L3.81913 46.6481C3.00635 46.2569 2.65372 45.289 3.02438 44.4667L2.65971 44.3023ZM4.54274 40.1079L2.65959 44.3026L3.0245 44.4664L4.90766 40.2717L4.54274 40.1079ZM1.38325 37.0226L4.58145 40.3288L4.86895 40.0507L1.67075 36.7445L1.38325 37.0226ZM1.38359 34.1476C0.605471 34.9481 0.605471 36.2224 1.38359 37.023L1.67042 36.7442C1.04319 36.0989 1.04319 35.0717 1.67042 34.4264L1.38359 34.1476ZM4.58169 30.8526L1.38349 34.1477L1.67052 34.4263L4.86872 31.1312L4.58169 30.8526ZM2.65957 26.8772L4.54273 31.0738L4.90767 30.9101L3.02452 26.7135L2.65957 26.8772ZM3.64559 24.1732C2.63842 24.6585 2.20115 25.8577 2.65964 26.8774L3.02445 26.7133C2.65488 25.8914 3.00735 24.9247 3.81921 24.5336L3.64559 24.1732ZM7.78251 22.1783L3.64553 24.1732L3.81927 24.5335L7.95625 22.5386L7.78251 22.1783ZM7.33649 17.7834L7.66991 22.373L8.06886 22.344L7.73544 17.7544L7.33649 17.7834ZM9.19289 15.5805C8.07887 15.6895 7.25506 16.667 7.33649 17.7834L7.73543 17.7543C7.66979 16.8544 8.33385 16.0664 9.23183 15.9786L9.19289 15.5805ZM13.7689 15.1186L9.19228 15.5806L9.23245 15.9785L13.809 15.5166L13.7689 15.1186ZM14.8444 10.8358L13.5964 15.2633L13.9814 15.3719L15.2294 10.9443L14.8444 10.8358ZM17.336 9.39227C16.2513 9.11816 15.1459 9.75874 14.8443 10.8361L15.2295 10.9439C15.4726 10.0755 16.3637 9.55912 17.238 9.78008L17.336 9.39227ZM19.6755 9.98272L17.336 9.39225L17.2381 9.78009L19.5776 10.3706L19.6755 9.98272ZM19.4265 5.7882V10.1766H19.8265V5.7882H19.4265ZM25.2145 0.00019531C22.0179 0.00019531 19.4265 2.59157 19.4265 5.7882H19.8265C19.8265 2.81249 22.2388 0.400195 25.2145 0.400195V0.00019531ZM69.9185 0.00019531H25.2145V0.400195H69.9185V0.00019531ZM75.7065 5.7882C75.7065 2.59157 73.1151 0.00019531 69.9185 0.00019531V0.400195C72.8942 0.400195 75.3065 2.81249 75.3065 5.7882H75.7065ZM75.7065 40.1171V5.7882H75.3065V40.1171H75.7065ZM17.2214 53.5814C16.9918 52.7656 16.2866 52.1733 15.4434 52.0881L15.4032 52.486C16.0828 52.5548 16.6513 53.0322 16.8364 53.6898L17.2214 53.5814ZM18.3204 57.4856L17.2214 53.5814L16.8364 53.6898L17.9354 57.594L18.3204 57.4856ZM22.0109 56.3512L18.0788 57.3459L18.1769 57.7337L22.109 56.739L22.0109 56.3512ZM22.5164 56.2874C22.3456 56.2873 22.1755 56.3088 22.0101 56.3514L22.1099 56.7388C22.2426 56.7046 22.3791 56.6873 22.5162 56.6874L22.5164 56.2874ZM24.1873 57.1434C23.8 56.6065 23.1785 56.288 22.5165 56.2874L22.5161 56.6874C23.0498 56.6879 23.5507 56.9446 23.8629 57.3774L24.1873 57.1434ZM26.5621 60.4328L24.1872 57.1433L23.8629 57.3774L26.2378 60.6669L26.5621 60.4328ZM29.6401 58.0991L26.2873 60.3846L26.5126 60.7151L29.8654 58.4296L29.6401 58.0991ZM31.9627 58.0991C31.2621 57.6218 30.3408 57.6218 29.6402 58.0991L29.8654 58.4296C30.4301 58.0449 31.1728 58.0449 31.7375 58.4296L31.9627 58.0991ZM35.3156 60.3846L31.9628 58.0991L31.7375 58.4296L35.0903 60.7151L35.3156 60.3846ZM37.4044 57.1528L35.0407 60.4329L35.3652 60.6668L37.7289 57.3866L37.4044 57.1528ZM39.5805 56.3586C38.761 56.1525 37.8986 56.4672 37.4044 57.1527L37.7289 57.3866C38.1273 56.8341 38.8224 56.5804 39.483 56.7465L39.5805 56.3586ZM43.5129 57.3533L39.5808 56.3587L39.4827 56.7464L43.4148 57.7411L43.5129 57.3533ZM44.3703 53.5815L43.2713 57.4931L43.6564 57.6013L44.7554 53.6897L44.3703 53.5815ZM46.1483 52.0881C45.3052 52.1733 44.5999 52.7656 44.3703 53.5814L44.7554 53.6898C44.9404 53.0322 45.5089 52.5548 46.1886 52.486L46.1483 52.0881ZM50.1848 51.682L46.1484 52.0881L46.1885 52.486L50.2249 52.08L50.1848 51.682ZM49.7111 47.8479L50.0054 51.8955L50.4043 51.8665L50.11 47.8189L49.7111 47.8479ZM50.8703 45.841C50.109 46.2091 49.6496 47.0046 49.7111 47.848L50.11 47.8189C50.0604 47.1391 50.4308 46.4978 51.0444 46.2011L50.8703 45.841ZM54.5232 44.0806L50.8706 45.8409L51.0442 46.2012L54.6969 44.441L54.5232 44.0806ZM52.7625 40.6456L54.4277 44.3429L54.7924 44.1787L53.1272 40.4813L52.7625 40.6456ZM53.1746 38.3614C52.5815 38.9656 52.4179 39.8711 52.7621 40.6447L53.1276 40.4821C52.8501 39.8585 52.982 39.1287 53.4601 38.6416L53.1746 38.3614ZM55.9995 35.4508L53.1739 38.3622L53.4609 38.6407L56.2866 35.7294L55.9995 35.4508ZM53.1759 32.8275L55.9997 35.7296L56.2864 35.4506L53.4626 32.5486L53.1759 32.8275ZM52.764 30.5428C52.4189 31.317 52.5825 32.2236 53.1766 32.8282L53.4619 32.5479C52.9831 32.0605 52.8511 31.3297 53.1294 30.7057L52.764 30.5428ZM54.4296 26.8465L52.7644 30.5421L53.129 30.7064L54.7943 27.0109L54.4296 26.8465ZM50.8724 25.3487L54.5251 27.1089L54.6987 26.7485L51.0461 24.9883L50.8724 25.3487ZM49.713 23.3395C49.6506 24.1836 50.1102 24.9801 50.8722 25.3485L51.0463 24.9884C50.4321 24.6915 50.0616 24.0494 50.1119 23.369L49.713 23.3395ZM50.0091 19.2939L49.713 23.3396L50.1119 23.3688L50.4081 19.3231L50.0091 19.2939ZM46.1521 19.0996L50.1885 19.5075L50.2287 19.1095L46.1923 18.7016L46.1521 19.0996ZM44.374 17.6062C44.6036 18.422 45.3089 19.0143 46.1521 19.0996L46.1923 18.7016C45.5126 18.6329 44.9442 18.1554 44.7591 17.4979L44.374 17.6062ZM43.275 13.6945L44.374 17.6061L44.7591 17.4979L43.6601 13.5863L43.275 13.6945ZM39.5921 14.829L43.5167 13.8343L43.4185 13.4466L39.4938 14.4412L39.5921 14.829ZM37.4157 14.037C37.9105 14.7217 38.7727 15.0355 39.5918 14.829L39.4941 14.4412C38.8338 14.6076 38.1388 14.3546 37.74 13.8027L37.4157 14.037ZM35.0408 10.7474L37.4157 14.0369L37.74 13.8028L35.3651 10.5133L35.0408 10.7474ZM31.9628 13.0811L35.3156 10.7956L35.0903 10.4651L31.7375 12.7506L31.9628 13.0811ZM29.6402 13.0812C30.3408 13.5584 31.2621 13.5584 31.9627 13.0812L31.7375 12.7506C31.1728 13.1353 30.4301 13.1353 29.8654 12.7506L29.6402 13.0812ZM26.2873 10.7956L29.6401 13.0811L29.8654 12.7506L26.5126 10.4651L26.2873 10.7956ZM24.189 14.0278L26.562 10.7476L26.2379 10.5131L23.8649 13.7933L24.189 14.0278ZM22.0131 14.8216C22.8326 15.0277 23.695 14.713 24.1892 14.0275L23.8647 13.7936C23.4663 14.3461 22.7712 14.5998 22.1106 14.4337L22.0131 14.8216ZM18.0807 13.8269L22.0128 14.8215L22.1109 14.4338L18.1788 13.4391L18.0807 13.8269ZM17.2233 17.5987L18.3223 13.6871L17.9372 13.5789L16.8382 17.4905L17.2233 17.5987ZM15.4453 19.0921C16.2885 19.0069 16.9937 18.4146 17.2233 17.5988L16.8382 17.4904C16.6532 18.148 16.0847 18.6255 15.405 18.6942L15.4453 19.0921ZM11.4088 19.4982L15.4452 19.0922L15.4051 18.6942L11.3687 19.1002L11.4088 19.4982ZM11.8825 23.3323L11.5882 19.2847L11.1893 19.3137L11.4836 23.3613L11.8825 23.3323ZM10.7233 25.3392C11.4846 24.9711 11.944 24.1756 11.8825 23.3322L11.4836 23.3613C11.5332 24.0412 11.1628 24.6824 10.5492 24.9791L10.7233 25.3392ZM7.07986 27.0995L10.7232 25.3393L10.5492 24.9791L6.90585 26.7393L7.07986 27.0995ZM8.84044 30.5347L7.17522 26.8373L6.8105 27.0015L8.47572 30.6989L8.84044 30.5347ZM8.42828 32.8189C9.02144 32.2146 9.18502 31.3091 8.84081 30.5355L8.47535 30.6981C8.75281 31.3217 8.62095 32.0515 8.14282 32.5387L8.42828 32.8189ZM5.6034 35.7294L8.42907 32.8181L8.14203 32.5395L5.31637 35.4508L5.6034 35.7294ZM8.41998 38.3624L5.60363 35.4511L5.31614 35.7292L8.13249 38.6405L8.41998 38.3624ZM8.8315 40.6447C9.17571 39.8711 9.01213 38.9656 8.41896 38.3614L8.1335 38.6416C8.61164 39.1287 8.7435 39.8585 8.46604 40.4821L8.8315 40.6447ZM7.16589 44.3411L8.83111 40.6456L8.46642 40.4813L6.8012 44.1768L7.16589 44.3411ZM10.7231 45.839L7.07037 44.0788L6.89672 44.4391L10.5494 46.1993L10.7231 45.839ZM11.8825 47.8482C11.9449 47.0041 11.4853 46.2075 10.7233 45.8391L10.5492 46.1992C11.1634 46.4962 11.5339 47.1383 11.4836 47.8187L11.8825 47.8482ZM11.5864 51.8937L11.8825 47.848L11.4836 47.8188L11.1874 51.8645L11.5864 51.8937ZM15.4434 52.0881L11.407 51.6801L11.3668 52.0781L15.4032 52.486L15.4434 52.0881ZM23.1515 69.119C23.1515 70.2582 24.075 71.1817 25.2142 71.1817V70.7817C24.2959 70.7817 23.5515 70.0373 23.5515 69.119H23.1515ZM23.1515 62.6909V69.119H23.5515V62.6909H23.1515ZM24.6033 64.0826L23.5136 62.5738L23.1894 62.808L24.279 64.3168L24.6033 64.0826ZM26.8879 64.4851C26.1432 64.9921 25.1301 64.8137 24.6034 64.0828L24.2789 64.3166C24.9324 65.2234 26.1891 65.4447 27.113 64.8158L26.8879 64.4851ZM30.6895 61.8942L26.8878 64.4852L27.1131 64.8157L30.9148 62.2248L30.6895 61.8942ZM34.7164 64.4833L30.9147 61.8942L30.6896 62.2248L34.4913 64.8139L34.7164 64.4833ZM37.0009 64.0809C36.4742 64.8118 35.4612 64.9902 34.7164 64.4833L34.4913 64.8139C35.4152 65.4428 36.672 65.2215 37.3254 64.3148L37.0009 64.0809ZM39.6926 60.3554L37.0011 64.0807L37.3253 64.315L40.0168 60.5896L39.6926 60.3554ZM44.3736 61.3961L39.9032 60.2785L39.8062 60.6665L44.2766 61.7841L44.3736 61.3961ZM46.3826 60.2323C46.1396 61.1008 45.2485 61.6171 44.3741 61.3962L44.2761 61.784C45.3608 62.0581 46.4663 61.4175 46.7678 60.3401L46.3826 60.2323ZM47.6307 55.8044L46.3827 60.232L46.7677 60.3405L48.0157 55.9129L47.6307 55.8044ZM52.3797 55.1977L47.8031 55.6597L47.8433 56.0577L52.4199 55.5957L52.3797 55.1977ZM53.8767 53.422C53.9424 54.3218 53.2783 55.1098 52.3803 55.1977L52.4193 55.5958C53.5333 55.4868 54.3571 54.5092 54.2757 53.3929L53.8767 53.422ZM53.5433 48.8323L53.8767 53.4219L54.2757 53.3929L53.9422 48.8033L53.5433 48.8323ZM57.8003 46.639L53.6559 48.6376L53.8296 48.9979L57.9741 46.9993L57.8003 46.639ZM58.5951 44.4592C58.9647 45.2811 58.6123 46.2478 57.8004 46.639L57.974 46.9993C58.9812 46.5141 59.4185 45.3148 58.96 44.2952L58.5951 44.4592ZM56.6973 40.2725L58.5954 44.4598L58.9597 44.2946L57.0617 40.1073L56.6973 40.2725ZM59.9342 36.7556L56.736 40.0506L57.023 40.3292L60.2212 37.0342L59.9342 36.7556ZM59.9343 34.4377C60.5615 35.083 60.5615 36.1102 59.9343 36.7555L60.2211 37.0343C60.9992 36.2337 60.9992 34.9594 60.2211 34.1589L59.9343 34.4377ZM56.7358 31.1311L59.9339 34.4374L60.2214 34.1593L57.0233 30.853L56.7358 31.1311ZM58.5878 26.7152L56.6972 30.9099L57.0618 31.0743L58.9524 26.8795L58.5878 26.7152ZM57.793 24.5337C58.6058 24.9249 58.9584 25.8928 58.5878 26.7152L58.9524 26.8795C59.4123 25.8594 58.9748 24.6586 57.9665 24.1733L57.793 24.5337ZM53.6415 22.5465L57.7934 24.5339L57.9661 24.1731L53.8142 22.1857L53.6415 22.5465ZM53.8637 17.7619L53.5284 22.3515L53.9273 22.3806L54.2626 17.791L53.8637 17.7619ZM52.3673 15.9862C53.2653 16.074 53.9293 16.862 53.8637 17.7619L54.2626 17.791C54.3441 16.6746 53.5202 15.697 52.4062 15.5881L52.3673 15.9862ZM47.7901 15.5242L52.3667 15.9861L52.4068 15.5881L47.8303 15.1262L47.7901 15.5242ZM46.3697 10.95L47.6177 15.3794L48.0027 15.2709L46.7547 10.8415L46.3697 10.95ZM44.3611 9.7858C45.2354 9.56485 46.1265 10.0812 46.3696 10.9497L46.7548 10.8419C46.4532 9.76446 45.3478 9.12388 44.2631 9.39799L44.3611 9.7858ZM39.8907 10.9146L44.3611 9.78581L44.2631 9.39798L39.7927 10.5268L39.8907 10.9146ZM36.9862 7.11252L39.6796 10.8379L40.0038 10.6035L37.3103 6.87816L36.9862 7.11252ZM34.7148 6.69984C35.4594 6.20375 36.4632 6.38598 36.986 7.11219L37.3106 6.87849C36.662 5.97758 35.4168 5.75151 34.493 6.36695L34.7148 6.69984ZM30.9147 9.28781L34.7164 6.6987L34.4913 6.36809L30.6896 8.9572L30.9147 9.28781ZM26.8879 6.6987L30.6896 9.28781L30.9147 8.9572L27.113 6.36809L26.8879 6.6987ZM24.6034 7.10109C25.1301 6.37019 26.1432 6.19176 26.8879 6.69873L27.113 6.36807C26.1891 5.73914 24.9324 5.96049 24.2789 6.86723L24.6034 7.10109ZM23.5136 8.60825L24.6032 7.10136L24.2791 6.86697L23.1894 8.37387L23.5136 8.60825ZM23.1515 5.78833V8.49106H23.5515V5.78833H23.1515ZM25.2142 3.72566C24.075 3.72566 23.1515 4.64915 23.1515 5.78833H23.5515C23.5515 4.87007 24.2959 4.12566 25.2142 4.12566V3.72566ZM69.9182 3.72566H25.2142V4.12566H69.9182V3.72566ZM71.9808 5.78833C71.9808 4.64915 71.0573 3.72566 69.9182 3.72566V4.12566C70.8364 4.12566 71.5808 4.87006 71.5808 5.78833H71.9808ZM71.9808 69.119V5.78833H71.5808V69.119H71.9808ZM69.9182 71.1817C71.0573 71.1817 71.9808 70.2582 71.9808 69.119H71.5808C71.5808 70.0373 70.8364 70.7817 69.9182 70.7817V71.1817ZM66.5523 71.1817H69.9182V70.7817H66.5523V71.1817ZM57.8333 62.7671L66.4128 71.1249L66.6919 70.8384L58.1124 62.4806L57.8333 62.7671ZM44.9377 62.7654C48.5003 59.2098 54.269 59.2098 57.8316 62.7654L58.1142 62.4823C54.3954 58.7709 48.3739 58.7709 44.6551 62.4823L44.9377 62.7654ZM42.4187 70.9445C41.8561 67.9693 42.7989 64.9083 44.9379 62.7652L44.6548 62.4826C42.4225 64.7192 41.4385 67.9138 42.0257 71.0188L42.4187 70.9445ZM25.2142 71.1817H42.2222V70.7817H25.2142V71.1817ZM109.036 108.034H75.5077V108.434H109.036V108.034ZM108.836 75.9816V108.234H109.236V75.9816H108.836ZM99.2265 58.7305C105.219 62.4108 108.861 68.9482 108.836 75.9808L109.236 75.9823C109.261 68.8101 105.548 62.143 99.4358 58.3896L99.2265 58.7305ZM75.4057 44.6187L99.2292 58.7321L99.4331 58.388L75.6096 44.2745L75.4057 44.6187ZM75.7077 69.1176V44.4466H75.3077V69.1176H75.7077ZM70.3553 74.8622C73.3667 74.6413 75.6996 72.1377 75.7077 69.1182L75.3077 69.1171C75.3002 71.9275 73.1289 74.2577 70.326 74.4633L70.3553 74.8622ZM82.5391 86.2674L70.4802 74.5195L70.2011 74.806L82.26 86.5539L82.5391 86.2674ZM79.9348 89.2178L82.5425 86.5504L82.2565 86.2708L79.6488 88.9381L79.9348 89.2178ZM55.2178 65.4182L79.6522 89.2212L79.9314 88.9347L55.4969 65.1317L55.2178 65.4182ZM47.5699 65.4009C49.7115 63.3545 53.0864 63.3624 55.2185 65.4189L55.4962 65.131C53.2097 62.9255 49.5903 62.917 47.2935 65.1117L47.5699 65.4009ZM47.5733 73.024C45.4719 70.9161 45.4719 67.5054 47.5733 65.3975L47.2901 65.1151C45.033 67.3791 45.033 71.0424 47.2901 73.3064L47.5733 73.024ZM62.1759 90.1309L47.5838 73.0354L47.2796 73.295L61.8717 90.3906L62.1759 90.1309ZM62.669 91.4697C62.6691 90.979 62.4943 90.5044 62.176 90.131L61.8716 90.3905C62.1282 90.6915 62.2691 91.0741 62.269 91.4696L62.669 91.4697ZM62.669 95.195V91.4696H62.269V95.195H62.669ZM75.5079 108.034C68.4205 108.026 62.6771 102.282 62.669 95.1947L62.269 95.1952C62.2773 102.503 68.1995 108.425 75.5074 108.434L75.5079 108.034Z" fill="black"/>
<path fill-rule="evenodd" clip-rule="evenodd" d="M32.6655 44.9048C32.6655 40.7899 36.0013 37.4541 40.1162 37.4541C44.2311 37.4541 47.5669 40.7899 47.5669 44.9048C47.5669 49.0197 44.2311 52.3554 40.1162 52.3554C36.0013 52.3554 32.6655 49.0197 32.6655 44.9048ZM36.3913 44.9052C36.3913 46.9626 38.0592 48.6305 40.1167 48.6305C42.1741 48.6305 43.842 46.9626 43.842 44.9052C43.842 42.8477 42.1741 41.1798 40.1167 41.1798C38.0592 41.1798 36.3913 42.8477 36.3913 44.9052Z" fill="black"/>
<path fill-rule="evenodd" clip-rule="evenodd" d="M28.9414 26.2764C28.9414 30.3912 25.6056 33.727 21.4907 33.727C17.3758 33.727 14.04 30.3912 14.04 26.2764C14.04 22.1615 17.3758 18.8257 21.4907 18.8257C25.6056 18.8257 28.9414 22.1615 28.9414 26.2764ZM25.2162 26.2768C25.2162 24.2194 23.5483 22.5515 21.4908 22.5515C19.4334 22.5515 17.7655 24.2194 17.7655 26.2768C17.7655 28.3343 19.4334 30.0022 21.4908 30.0022C23.5483 30.0022 25.2162 28.3343 25.2162 26.2768Z" fill="black"/>
<path d="M14.5781 49.1743L44.3757 19.3767L47.0096 22.0105L17.2119 51.8081L14.5781 49.1743Z" fill="black"/>
<path d="M82.9568 11.3762H86.6821V7.65086H90.4074V3.92553H86.6821V0.200195H82.9568V3.92553H79.2314V7.65086H82.9568V11.3762Z" fill="black"/>
<path d="M8.45092 11.3762H12.1763V7.65086H15.9016V3.92553H12.1763V0.200195H8.45092V3.92553H4.72559V7.65086H8.45092V11.3762Z" fill="black"/>
<path d="M90.4087 15.1023V18.8276H94.134V22.553H97.8594V18.8276H101.585V15.1023H97.8594V11.377H94.134V15.1023H90.4087Z" fill="black"/>
<circle cx="21.4885" cy="26.2766" r="3.72533" fill="#25CDEB"/>
<circle cx="40.1164" cy="44.905" r="3.72533" fill="#287CF1"/>
</svg>
