<svg width="126" height="124" viewBox="0 0 126 124" fill="none" xmlns="http://www.w3.org/2000/svg">
<path fill-rule="evenodd" clip-rule="evenodd" d="M10.4598 89.3836H73.7489L77.9429 76.2162L84.2327 70.183L93.0968 67.5175H101.478L107.771 71.8528L114.174 76.9836L117.206 83.4491H123.236V61.4836C123.236 61.4836 99.2209 55.8114 80.5928 62.6272C61.9647 69.4429 56.098 77.9713 39.8256 79.8347C23.5533 81.6982 2.5498 71.8528 2.5498 71.8528V82.6761C2.5498 82.6761 3.58476 86.5627 4.82477 87.6142C6.06479 88.6657 10.4598 89.3836 10.4598 89.3836Z" fill="#2FB492"/>
<path d="M115.415 10.3335H10.5851C5.29996 10.3335 1 14.6335 1 19.9186V82.04C1 87.3251 5.29996 91.6251 10.5851 91.6251H64.911C65.9161 91.6251 66.7309 90.8102 66.7309 89.8051C66.7309 88.8 65.9161 87.9852 64.911 87.9852H10.5851C7.30701 87.9852 4.63992 85.3181 4.63992 82.04V19.9186C4.63992 16.6405 7.30701 13.9734 10.5851 13.9734H115.415C118.693 13.9734 121.36 16.6405 121.36 19.9186V82.04C121.36 83.0451 122.175 83.8599 123.18 83.8599C124.185 83.8599 125 83.0451 125 82.04V19.9186C125 14.6335 120.7 10.3335 115.415 10.3335Z" fill="black" stroke="black" stroke-width="0.4"/>
<path d="M51.3521 74.396H16.4088C15.4037 74.396 14.5889 75.2109 14.5889 76.216C14.5889 77.2211 15.4037 78.0359 16.4088 78.0359H51.3521C52.3572 78.0359 53.172 77.2211 53.172 76.216C53.172 75.2109 52.3572 74.396 51.3521 74.396Z" fill="black"/>
<path fill-rule="evenodd" clip-rule="evenodd" d="M37.6417 41.2729V33.5077C37.6417 30.3633 35.0836 27.8052 31.9392 27.8052H20.2914C17.147 27.8052 14.5889 30.3633 14.5889 33.5077V41.2729C14.5889 44.4173 17.147 46.9754 20.2914 46.9754H31.9392C35.0836 46.9754 37.6417 44.4173 37.6417 41.2729ZM18.2285 41.2729V39.2103H20.2911C21.2962 39.2103 22.1111 38.3954 22.1111 37.3903C22.1111 36.3852 21.2962 35.5703 20.2911 35.5703H18.2285V33.5077C18.2285 32.3704 19.1538 31.4451 20.2911 31.4451H24.295V43.3355H20.2911C19.1538 43.3355 18.2285 42.4102 18.2285 41.2729ZM27.9349 43.3355H31.9388C33.0762 43.3355 34.0014 42.4102 34.0014 41.2729V39.2103H31.9388C30.9337 39.2103 30.1189 38.3954 30.1189 37.3903C30.1189 36.3852 30.9337 35.5703 31.9388 35.5703H34.0014V33.5077C34.0014 32.3704 33.0762 31.4451 31.9388 31.4451H27.9349V43.3355Z" fill="black"/>
<path d="M14.5889 64.5683C14.5889 65.5734 15.4037 66.3882 16.4088 66.3882C17.4139 66.3882 18.2288 65.5734 18.2288 64.5683V60.6857C18.2288 59.6806 17.4139 58.8657 16.4088 58.8657C15.4037 58.8657 14.5889 59.6806 14.5889 60.6857V64.5683Z" fill="black"/>
<path d="M20.4131 60.6857V64.5683C20.4131 65.5734 21.2279 66.3882 22.233 66.3882C23.2382 66.3882 24.053 65.5734 24.053 64.5683V60.6857C24.053 59.6806 23.2382 58.8657 22.233 58.8657C21.2279 58.8657 20.4131 59.6806 20.4131 60.6857Z" fill="black"/>
<path d="M26.2368 60.6857V64.5683C26.2368 65.5734 27.0517 66.3882 28.0568 66.3882C29.0619 66.3882 29.8767 65.5734 29.8767 64.5683V60.6857C29.8767 59.6806 29.0619 58.8657 28.0568 58.8657C27.0517 58.8657 26.2368 59.6806 26.2368 60.6857Z" fill="black"/>
<path d="M32.0605 60.6857V64.5683C32.0605 65.5734 32.8754 66.3882 33.8805 66.3882C34.8856 66.3882 35.7005 65.5734 35.7005 64.5683V60.6857C35.7005 59.6806 34.8856 58.8657 33.8805 58.8657C32.8754 58.8657 32.0605 59.6806 32.0605 60.6857Z" fill="black"/>
<path d="M43.4656 64.5683V60.6857C43.4656 59.6806 42.6507 58.8657 41.6456 58.8657C40.6405 58.8657 39.8257 59.6806 39.8257 60.6857V64.5683C39.8257 65.5734 40.6405 66.3882 41.6456 66.3882C42.6507 66.3882 43.4656 65.5734 43.4656 64.5683Z" fill="black"/>
<path d="M49.2893 64.5683V60.6857C49.2893 59.6806 48.4745 58.8657 47.4694 58.8657C46.4643 58.8657 45.6494 59.6806 45.6494 60.6857V64.5683C45.6494 65.5734 46.4643 66.3882 47.4694 66.3882C48.4745 66.3882 49.2893 65.5734 49.2893 64.5683Z" fill="black"/>
<path d="M53.2936 58.8657C52.2885 58.8657 51.4736 59.6806 51.4736 60.6857V64.5683C51.4736 65.5734 52.2885 66.3882 53.2936 66.3882C54.2987 66.3882 55.1136 65.5734 55.1136 64.5683V60.6857C55.1136 59.6806 54.2987 58.8657 53.2936 58.8657Z" fill="black"/>
<path d="M60.9373 64.5683V60.6857C60.9373 59.6806 60.1224 58.8657 59.1173 58.8657C58.1122 58.8657 57.2974 59.6806 57.2974 60.6857V64.5683C57.2974 65.5734 58.1122 66.3882 59.1173 66.3882C60.1224 66.3882 60.9373 65.5734 60.9373 64.5683Z" fill="black"/>
<path fill-rule="evenodd" clip-rule="evenodd" d="M111.411 37.3903C111.411 42.6755 107.111 46.9754 101.826 46.9754H90.1779C84.8927 46.9754 80.5928 42.6755 80.5928 37.3903C80.5928 32.1051 84.8927 27.8052 90.1779 27.8052H101.826C107.111 27.8052 111.411 32.1051 111.411 37.3903ZM90.1776 31.4451C86.8995 31.4451 84.2324 34.1122 84.2324 37.3903C84.2324 40.6684 86.8995 43.3355 90.1776 43.3355H101.825C105.103 43.3355 107.771 40.6684 107.771 37.3903C107.771 34.1122 105.103 31.4451 101.825 31.4451H90.1776Z" fill="black"/>
<path d="M101.826 47.0754C107.166 47.0754 111.511 42.7307 111.511 37.3903H111.311C111.311 42.6202 107.056 46.8754 101.826 46.8754V47.0754ZM90.1779 47.0754H101.826V46.8754H90.1779V47.0754ZM80.4928 37.3903C80.4928 42.7307 84.8375 47.0754 90.1779 47.0754V46.8754C84.948 46.8754 80.6928 42.6202 80.6928 37.3903H80.4928ZM90.1779 27.7052C84.8375 27.7052 80.4928 32.0499 80.4928 37.3903H80.6928C80.6928 32.1604 84.948 27.9052 90.1779 27.9052V27.7052ZM101.826 27.7052H90.1779V27.9052H101.826V27.7052ZM111.511 37.3903C111.511 32.0499 107.166 27.7052 101.826 27.7052V27.9052C107.056 27.9052 111.311 32.1604 111.311 37.3903H111.511ZM84.3324 37.3903C84.3324 34.1674 86.9547 31.5451 90.1776 31.5451V31.3451C86.8443 31.3451 84.1324 34.057 84.1324 37.3903H84.3324ZM90.1776 43.2355C86.9547 43.2355 84.3324 40.6132 84.3324 37.3903H84.1324C84.1324 40.7236 86.8443 43.4355 90.1776 43.4355V43.2355ZM101.825 43.2355H90.1776V43.4355H101.825V43.2355ZM107.671 37.3903C107.671 40.6132 105.048 43.2355 101.825 43.2355V43.4355C105.159 43.4355 107.871 40.7236 107.871 37.3903H107.671ZM101.825 31.5451C105.048 31.5451 107.671 34.1674 107.671 37.3903H107.871C107.871 34.057 105.159 31.3451 101.825 31.3451V31.5451ZM90.1776 31.5451H101.825V31.3451H90.1776V31.5451Z" fill="black"/>
<path fill-rule="evenodd" clip-rule="evenodd" d="M72.2998 89.3378C72.2998 76.5428 82.7297 66.1333 95.5498 66.1333C108.37 66.1333 118.8 76.5428 118.8 89.3378C118.8 102.133 108.37 112.542 95.5498 112.542C82.7297 112.542 72.2998 102.133 72.2998 89.3378ZM75.0348 89.3378C75.0348 100.628 84.2376 109.812 95.5495 109.812C106.861 109.812 116.064 100.628 116.064 89.3378C116.064 78.048 106.861 68.8632 95.5495 68.8632C84.2376 68.8632 75.0348 78.048 75.0348 89.3378Z" fill="black"/>
<path d="M95.5498 65.9333C82.6196 65.9333 72.0998 76.4319 72.0998 89.3378H72.4998C72.4998 76.6536 82.8398 66.3333 95.5498 66.3333V65.9333ZM119 89.3378C119 76.4319 108.48 65.9333 95.5498 65.9333V66.3333C108.26 66.3333 118.6 76.6536 118.6 89.3378H119ZM95.5498 112.742C108.48 112.742 119 102.244 119 89.3378H118.6C118.6 102.022 108.26 112.342 95.5498 112.342V112.742ZM72.0998 89.3378C72.0998 102.244 82.6196 112.742 95.5498 112.742V112.342C82.8398 112.342 72.4998 102.022 72.4998 89.3378H72.0998ZM95.5495 109.612C84.3476 109.612 75.2348 100.517 75.2348 89.3378H74.8348C74.8348 100.738 84.1275 110.012 95.5495 110.012V109.612ZM115.864 89.3378C115.864 100.517 106.751 109.612 95.5495 109.612V110.012C106.971 110.012 116.264 100.738 116.264 89.3378H115.864ZM95.5495 69.0632C106.751 69.0632 115.864 78.1589 115.864 89.3378H116.264C116.264 77.9372 106.971 68.6632 95.5495 68.6632V69.0632ZM75.2348 89.3378C75.2348 78.1589 84.3476 69.0632 95.5495 69.0632V68.6632C84.1275 68.6632 74.8348 77.9372 74.8348 89.3378H75.2348Z" fill="black"/>
<path d="M102.744 82.6021C102.643 82.4964 102.514 82.4437 102.358 82.4437H99.4831C99.2925 81.4694 98.9338 80.6236 98.4072 79.9074H102.324C102.481 79.9074 102.609 79.8546 102.711 79.7491C102.811 79.6435 102.861 79.5083 102.861 79.344V77.547C102.861 77.3825 102.811 77.2476 102.711 77.1419C102.609 77.0364 102.481 76.9834 102.324 76.9834H88.3377C88.1807 76.9834 88.0519 77.0364 87.951 77.1418C87.8504 77.2476 87.7998 77.3825 87.7998 77.547V79.8895C87.7998 80.0422 87.853 80.1743 87.9595 80.2858C88.0659 80.3973 88.192 80.4531 88.3377 80.4531H90.7752C93.1397 80.4531 94.6414 81.1164 95.2801 82.4434H88.3377C88.1807 82.4434 88.0517 82.4961 87.951 82.6018C87.8504 82.7076 87.7998 82.8425 87.7998 83.0069V84.8037C87.7998 84.968 87.8501 85.1031 87.951 85.2085C88.0519 85.3143 88.1809 85.367 88.3377 85.367H95.5158C95.2692 86.3301 94.6948 87.0639 93.7926 87.5688C92.8903 88.0739 91.6998 88.3264 90.2204 88.3264H88.3377C88.192 88.3264 88.0659 88.3822 87.9595 88.4937C87.853 88.6053 87.7998 88.7374 87.7998 88.8899V91.1271C87.7998 91.2799 87.8501 91.4091 87.951 91.5146C90.1026 93.91 92.8932 97.2622 96.3225 101.572C96.4234 101.713 96.5634 101.783 96.7428 101.783H100.021C100.256 101.783 100.419 101.678 100.508 101.466C100.62 101.255 100.598 101.055 100.441 100.867C97.1689 96.6634 94.5968 93.5165 92.7252 91.4264C94.6304 91.1916 96.177 90.5456 97.365 89.489C98.5528 88.4323 99.2755 87.0581 99.5334 85.3673H102.358C102.514 85.3673 102.643 85.3146 102.744 85.2089C102.845 85.1034 102.895 84.9683 102.895 84.804V83.0074C102.895 82.8428 102.845 82.7078 102.744 82.6021Z" fill="black"/>
</svg>
