<svg width="70" height="70" viewBox="0 0 70 70" fill="none" xmlns="http://www.w3.org/2000/svg">
<path d="M29.5168 25.9624C30.0586 25.6012 30.7279 25.2784 31.5 25.0285L31.5 30.9715C30.7279 30.7216 30.0586 30.3988 29.5168 30.0376C28.2424 29.188 28 28.3987 28 28C28 27.6013 28.2424 26.812 29.5168 25.9624Z" fill="#2FB492"/>
<path d="M38.5001 44.9715L38.5 39.0285C39.2722 39.2784 39.9414 39.6012 40.4832 39.9624C41.7576 40.812 42.0001 41.6014 42.0001 42C42.0001 42.3987 41.7576 43.188 40.4832 44.0376C39.9415 44.3988 39.2722 44.7216 38.5001 44.9715Z" fill="#2FB492"/>
<path fill-rule="evenodd" clip-rule="evenodd" d="M35 63C50.464 63 63 50.464 63 35C63 19.536 50.464 7 35 7C19.536 7 7 19.536 7 35C7 50.464 19.536 63 35 63ZM38.5 17.5C38.5 15.567 36.933 14 35 14C33.067 14 31.5 15.567 31.5 17.5V17.822C29.3244 18.2305 27.3122 19.0192 25.6339 20.1381C23.1081 21.822 21 24.5327 21 28C21 31.4673 23.1081 34.178 25.6339 35.8619C27.3122 36.9808 29.3244 37.7695 31.5 38.178L31.5001 44.9724C30.1316 44.528 29.1171 43.8617 28.5483 43.2062C27.2815 41.7462 25.071 41.5896 23.611 42.8564C22.151 44.1233 21.9944 46.3338 23.2612 47.7938C25.2299 50.0627 28.2084 51.5579 31.5 52.1767L31.5 52.4999C31.5 54.4329 33.0669 56 34.9999 56C36.9329 56 38.5 54.4331 38.5 52.5001L38.5 52.178C40.6756 51.7695 42.6879 50.9808 44.3661 49.8619C46.892 48.178 49.0001 45.4673 49.0001 42C49.0001 38.5326 46.892 35.822 44.3661 34.1381C42.6879 33.0192 40.6756 32.2306 38.5 31.822L38.5 25.0276C39.8685 25.472 40.883 26.1383 41.4517 26.7938C42.7186 28.2538 44.9291 28.4104 46.3891 27.1436C47.8491 25.8767 48.0057 23.6662 46.7388 22.2062C44.7701 19.9373 41.7916 18.442 38.5 17.8233V17.5Z" fill="#2FB492"/>
</svg>
