<svg width="124" height="125" viewBox="0 0 124 125" fill="none" xmlns="http://www.w3.org/2000/svg">
<ellipse cx="60.7742" cy="116.593" rx="50.4407" ry="8.40678" fill="#1D1939"/>
<path d="M10.3335 82.4575C10.3335 76.9347 14.8106 72.4575 20.3335 72.4575H46.5708C52.0936 72.4575 56.5708 76.9347 56.5708 82.4575V106.491C56.5708 110.91 52.9891 114.491 48.5708 114.491H18.3335C13.9152 114.491 10.3335 110.91 10.3335 106.491V82.4575Z" fill="#EAFCFF"/>
<rect x="49.0044" y="2.68115" width="28.5831" height="8.40678" rx="2" fill="#287CF1"/>
<path d="M44.5952 92.3643H48.4021V96.1711H44.5952V92.3643Z" fill="black"/>
<path fill-rule="evenodd" clip-rule="evenodd" d="M53.4193 74.7155C53.5665 70.0195 57.8835 69.2229 61.5837 72.1182C62.1214 72.5389 62.6917 72.9435 63.2964 73.33C77.8153 82.6072 80.6229 47.7883 93.0969 60.0971C93.7516 60.7432 94.1028 61.65 94.1367 62.5692L95.9227 110.989C96.0089 113.327 94.0785 115.24 91.7411 115.132L52.209 113.309L53.4193 74.7155Z" fill="#00C5B3"/>
<path d="M17.9468 92.3643H21.7536V96.1711H17.9468V92.3643Z" fill="black"/>
<path d="M31.2713 88.5574H35.0781C36.1294 88.5574 36.9816 89.4096 36.9816 90.4609H40.7884C40.7884 87.3072 38.2318 84.7506 35.0781 84.7506V82.8472H31.2713V84.7506C28.1176 84.7506 25.561 87.3072 25.561 90.4609C25.561 93.6145 28.1176 96.1711 31.2713 96.1711H35.0781C36.1294 96.1711 36.9816 97.0233 36.9816 98.0745C36.9816 99.1258 36.1294 99.978 35.0781 99.978H31.2713C30.2201 99.978 29.3679 99.1258 29.3679 98.0745H25.561C25.561 101.228 28.1176 103.785 31.2713 103.785V105.688H35.0781V103.785C38.2318 103.785 40.7884 101.228 40.7884 98.0745C40.7884 94.9208 38.2318 92.3643 35.0781 92.3643H31.2713C30.2201 92.3643 29.3679 91.5121 29.3679 90.4609C29.3679 89.4096 30.2201 88.5574 31.2713 88.5574V88.5574Z" fill="black"/>
<path d="M86.4705 33.3582H90.2774C91.3286 33.3582 92.1808 34.2104 92.1808 35.2616H95.9876C95.9876 32.1079 93.4311 29.5514 90.2774 29.5514V27.6479H86.4705V29.5514C83.3168 29.5514 80.7603 32.1079 80.7603 35.2616C80.7603 38.4153 83.3168 40.9719 86.4705 40.9719H90.2774C91.3286 40.9719 92.1808 41.8241 92.1808 42.8753C92.1808 43.9266 91.3286 44.7787 90.2774 44.7787H86.4705C85.4193 44.7787 84.5671 43.9266 84.5671 42.8753H80.7603C80.7603 46.029 83.3168 48.5856 86.4705 48.5856V50.489H90.2774V48.5856C93.4311 48.5856 95.9876 46.029 95.9876 42.8753C95.9876 39.7216 93.4311 37.1651 90.2774 37.1651H86.4705C85.4193 37.1651 84.5671 36.3129 84.5671 35.2616C84.5671 34.2104 85.4193 33.3582 86.4705 33.3582Z" fill="black"/>
<path fill-rule="evenodd" clip-rule="evenodd" d="M21.7544 59.5185L27.5804 73.3301H40.7886L44.5955 59.5185L40.7886 56.6782H36.9791L33.1749 59.5185H30.0994L28.903 56.6782H24.2955L21.7544 59.5185Z" fill="#25CDEB"/>
<path fill-rule="evenodd" clip-rule="evenodd" d="M97.8909 18.3307C105.998 22.0509 111.201 30.1481 111.215 39.0684C111.205 47.9923 106.002 56.094 97.8909 59.8157V105.688C97.8846 110.942 93.6273 115.199 88.3738 115.205H23.6574C16.3023 115.197 10.3419 109.237 10.3335 101.881V92.3643C10.3446 84.215 14.6966 76.689 21.754 72.6143V69.5232H24.002L19.9705 58.7708C19.7513 58.186 19.8329 57.531 20.1888 57.0179C20.5447 56.5048 21.1296 56.1988 21.754 56.1992C22.4418 56.1496 23.1016 55.9068 23.6574 55.4988C24.7878 54.7473 26.1074 54.3303 27.4643 54.2958C28.128 54.2974 28.7813 54.4607 29.3677 54.7717V10.5171C29.374 5.26356 33.6313 1.00629 38.8848 1H88.3738C93.6273 1.00629 97.8846 5.26356 97.8909 10.5171V18.3307ZM75.0499 4.80684H52.2088V6.71027C52.2088 7.7615 53.061 8.61369 54.1123 8.61369H73.1465C74.1977 8.61369 75.0499 7.7615 75.0499 6.71027V4.80684ZM24.2952 59.4598C24.729 59.2646 25.1516 59.0454 25.561 58.8031C26.1168 58.3951 26.7766 58.1523 27.4644 58.1027C27.777 58.1027 28.3672 58.77 28.8299 59.2933L28.8862 59.357C29.86 60.8086 31.4345 61.7457 33.1747 61.9095C34.9149 61.7457 36.4894 60.8086 37.4631 59.357L37.5194 59.2933C37.9821 58.77 38.5723 58.1027 38.8849 58.1027C39.5727 58.1523 40.2325 58.3951 40.7883 58.8031C41.1952 59.0451 41.6153 59.2644 42.0465 59.4598L38.2815 69.5232H28.0678L24.2952 59.4598ZM14.1403 101.881C14.1465 107.135 18.4038 111.392 23.6574 111.398H42.6916C47.9451 111.392 52.2024 107.135 52.2087 101.881V92.3643C52.1992 84.6432 47.5313 77.691 40.3884 74.7595C40.6468 75.5258 40.7818 76.3282 40.7882 77.1369V79.0403H36.9813V77.1369C36.9813 75.0344 35.2769 73.33 33.1745 73.33C31.072 73.33 29.3676 75.0344 29.3676 77.1369V79.0403H25.5608V77.1369C25.5672 76.3282 25.7021 75.5258 25.9605 74.7595C18.8176 77.691 14.1498 84.6432 14.1403 92.3643V101.881ZM94.084 105.688C94.084 108.842 91.5275 111.398 88.3738 111.398H51.9975C54.5672 108.899 56.0164 105.466 56.0156 101.881V92.3642C56.0045 84.215 51.6525 76.6889 44.5951 72.6143V69.5232H42.3471L46.3786 58.7708C46.5978 58.186 46.5162 57.531 46.1603 57.0179C45.8045 56.5048 45.2195 56.1988 44.5951 56.1992C43.9073 56.1496 43.2475 55.9068 42.6917 55.4988C41.5613 54.7473 40.2417 54.3303 38.8848 54.2958C37.1446 54.4596 35.5701 55.3967 34.5964 56.8483L34.5401 56.912C34.0773 57.4353 33.4872 58.1026 33.1745 58.1026V10.5171C33.1745 7.36342 35.7311 4.80684 38.8848 4.80684H48.4019V6.71027C48.4019 9.86396 50.9585 12.4205 54.1122 12.4205H73.1464C76.3001 12.4205 78.8567 9.86396 78.8567 6.71027V4.80684H88.3738C91.5275 4.80684 94.084 7.36342 94.084 10.5171V16.9887C84.8173 14.5343 75.0039 18.1274 69.513 25.9853C64.0221 33.8432 64.0221 44.2937 69.513 52.1516C75.0039 60.0095 84.8173 63.6026 94.084 61.1481V105.688ZM69.3395 39.0684C69.3395 49.5807 77.8614 58.1027 88.3737 58.1027C98.8812 58.0911 107.396 49.576 107.408 39.0684C107.408 28.5561 98.886 20.0342 88.3737 20.0342C77.8614 20.0342 69.3395 28.5561 69.3395 39.0684Z" fill="black"/>
<path d="M111.215 39.0684L111.365 39.0686L111.365 39.0682L111.215 39.0684ZM97.8909 18.3307H97.7409V18.4269L97.8283 18.467L97.8909 18.3307ZM97.8909 59.8157L97.8283 59.6794L97.7409 59.7195V59.8157H97.8909ZM97.8909 105.688L98.0409 105.688V105.688H97.8909ZM88.3738 115.205L88.3738 115.355L88.374 115.355L88.3738 115.205ZM23.6574 115.205L23.6573 115.355H23.6574V115.205ZM10.3335 101.881L10.1835 101.881L10.1835 101.882L10.3335 101.881ZM10.3335 92.3643L10.1835 92.3641V92.3643H10.3335ZM21.754 72.6143L21.829 72.7443L21.904 72.701V72.6143H21.754ZM21.754 69.5232V69.3732H21.604V69.5232H21.754ZM24.002 69.5232V69.6732H24.2184L24.1424 69.4705L24.002 69.5232ZM19.9705 58.7708L19.8301 58.8234L19.8301 58.8234L19.9705 58.7708ZM20.1888 57.0179L20.312 57.1034L20.312 57.1034L20.1888 57.0179ZM21.754 56.1992L21.7539 56.3496L21.7648 56.3488L21.754 56.1992ZM23.6574 55.4988L23.5743 55.3737L23.5687 55.3779L23.6574 55.4988ZM27.4643 54.2958L27.4646 54.1458L27.4605 54.1459L27.4643 54.2958ZM29.3677 54.7717L29.2974 54.9042L29.5177 55.021V54.7717H29.3677ZM29.3677 10.5171L29.2177 10.5169V10.5171H29.3677ZM38.8848 1L38.8848 0.85L38.8846 0.85L38.8848 1ZM88.3738 1L88.374 0.85H88.3738V1ZM97.8909 10.5171L98.0409 10.5171L98.0409 10.5169L97.8909 10.5171ZM52.2088 4.80684V4.65684H52.0588V4.80684H52.2088ZM75.0499 4.80684H75.1999V4.65684H75.0499V4.80684ZM25.561 58.8031L25.6374 58.9322L25.6438 58.9284L25.6497 58.924L25.561 58.8031ZM24.2952 59.4598L24.2337 59.323L24.1054 59.3807L24.1547 59.5125L24.2952 59.4598ZM27.4644 58.1027V57.9523L27.4536 57.953L27.4644 58.1027ZM28.8299 59.2933L28.7175 59.3927L28.7176 59.3927L28.8299 59.2933ZM28.8862 59.357L29.0108 59.2735L29.0052 59.2651L28.9986 59.2576L28.8862 59.357ZM33.1747 61.9095L33.1606 62.0588L33.1747 62.0602L33.1887 62.0588L33.1747 61.9095ZM37.4631 59.357L37.3507 59.2576L37.3441 59.2651L37.3385 59.2735L37.4631 59.357ZM37.5194 59.2933L37.6318 59.3927L37.6318 59.3927L37.5194 59.2933ZM38.8849 58.1027L38.8957 57.9527H38.8849V58.1027ZM40.7883 58.8031L40.6996 58.924L40.7054 58.9283L40.7117 58.932L40.7883 58.8031ZM42.0465 59.4598L42.187 59.5124L42.2361 59.381L42.1084 59.3232L42.0465 59.4598ZM38.2815 69.5232V69.6732H38.3856L38.422 69.5757L38.2815 69.5232ZM28.0678 69.5232L27.9273 69.5758L27.9638 69.6732H28.0678V69.5232ZM23.6574 111.398L23.6572 111.548H23.6574V111.398ZM14.1403 101.881L13.9903 101.881L13.9903 101.882L14.1403 101.881ZM42.6916 111.398L42.6916 111.548L42.6918 111.548L42.6916 111.398ZM52.2087 101.881L52.3587 101.882V101.881H52.2087ZM52.2087 92.3643L52.3587 92.3643L52.3587 92.3641L52.2087 92.3643ZM40.3884 74.7595L40.4454 74.6207L40.1413 74.4959L40.2463 74.8074L40.3884 74.7595ZM40.7882 77.1369H40.9382L40.9382 77.1357L40.7882 77.1369ZM40.7882 79.0403V79.1903H40.9382V79.0403H40.7882ZM36.9813 79.0403H36.8313V79.1903H36.9813V79.0403ZM29.3676 79.0403V79.1903H29.5176V79.0403H29.3676ZM25.5608 79.0403H25.4108V79.1903H25.5608V79.0403ZM25.5608 77.1369L25.4108 77.1357V77.1369H25.5608ZM25.9605 74.7595L26.1026 74.8074L26.2077 74.4959L25.9036 74.6207L25.9605 74.7595ZM14.1403 92.3643L13.9903 92.3641V92.3643H14.1403ZM51.9975 111.398L51.8929 111.291L51.6282 111.548H51.9975V111.398ZM56.0156 101.881L55.8656 101.881L55.8656 101.881L56.0156 101.881ZM56.0156 92.3642L56.1656 92.3642L56.1656 92.364L56.0156 92.3642ZM44.5951 72.6143H44.4451V72.7009L44.5201 72.7442L44.5951 72.6143ZM44.5951 69.5232H44.7451V69.3732H44.5951V69.5232ZM42.3471 69.5232L42.2067 69.4705L42.1307 69.6732H42.3471V69.5232ZM46.3786 58.7708L46.519 58.8234L46.519 58.8234L46.3786 58.7708ZM46.1603 57.0179L46.0371 57.1034L46.0371 57.1034L46.1603 57.0179ZM44.5951 56.1992L44.5843 56.3492L44.5952 56.3492L44.5951 56.1992ZM42.6917 55.4988L42.7805 55.3777L42.7747 55.3739L42.6917 55.4988ZM38.8848 54.2958L38.8886 54.1459L38.8797 54.1456L38.8708 54.1465L38.8848 54.2958ZM34.5964 56.8483L34.7088 56.9477L34.7154 56.9402L34.721 56.9319L34.5964 56.8483ZM34.5401 56.912L34.4277 56.8126L34.4277 56.8126L34.5401 56.912ZM33.1745 58.1026H33.0245V58.2526H33.1745V58.1026ZM48.4019 4.80684H48.5519V4.65684H48.4019V4.80684ZM78.8567 4.80684V4.65684H78.7067V4.80684H78.8567ZM94.084 16.9887L94.0456 17.1337L94.234 17.1836V16.9887H94.084ZM69.513 25.9853L69.636 26.0712L69.636 26.0712L69.513 25.9853ZM69.513 52.1516L69.636 52.0657L69.636 52.0657L69.513 52.1516ZM94.084 61.1481H94.234V60.9532L94.0456 61.0031L94.084 61.1481ZM88.3737 58.1027L88.3737 58.2527L88.3739 58.2527L88.3737 58.1027ZM107.408 39.0684L107.558 39.0686V39.0684H107.408ZM111.365 39.0682C111.351 30.0893 106.114 21.939 97.9535 18.1943L97.8283 18.467C105.883 22.1629 111.051 30.2068 111.065 39.0687L111.365 39.0682ZM97.9535 59.9521C106.117 56.2059 111.354 48.051 111.365 39.0686L111.065 39.0683C111.055 47.9335 105.886 55.9821 97.8283 59.6794L97.9535 59.9521ZM98.0409 105.688V59.8157H97.7409V105.688H98.0409ZM88.374 115.355C93.7102 115.349 98.0345 111.025 98.0409 105.688L97.7409 105.688C97.7347 110.859 93.5445 115.049 88.3736 115.055L88.374 115.355ZM23.6574 115.355H88.3738V115.055H23.6574V115.355ZM10.1835 101.882C10.192 109.319 16.2194 115.347 23.6573 115.355L23.6576 115.055C16.3852 115.047 10.4918 109.154 10.4835 101.881L10.1835 101.882ZM10.1835 92.3643V101.881H10.4835V92.3643H10.1835ZM21.679 72.4844C14.5752 76.5858 10.1946 84.1613 10.1835 92.3641L10.4835 92.3645C10.4945 84.2687 14.8179 76.7921 21.829 72.7443L21.679 72.4844ZM21.604 69.5232V72.6143H21.904V69.5232H21.604ZM24.002 69.3732H21.754V69.6732H24.002V69.3732ZM19.8301 58.8234L23.8615 69.5759L24.1424 69.4705L20.111 58.7181L19.8301 58.8234ZM20.0655 56.9324C19.6816 57.486 19.5936 58.1926 19.8301 58.8234L20.111 58.7181C19.9091 58.1795 19.9842 57.5761 20.312 57.1034L20.0655 56.9324ZM21.7541 56.0492C21.0805 56.0488 20.4494 56.3788 20.0655 56.9324L20.312 57.1034C20.6399 56.6307 21.1787 56.3489 21.7539 56.3492L21.7541 56.0492ZM23.5687 55.3779C23.0356 55.7692 22.4028 56.002 21.7432 56.0496L21.7648 56.3488C22.4808 56.2972 23.1676 56.0444 23.7462 55.6197L23.5687 55.3779ZM27.4605 54.1459C26.0753 54.181 24.7283 54.6067 23.5744 55.3739L23.7405 55.6237C24.8473 54.8878 26.1394 54.4795 27.4681 54.4458L27.4605 54.1459ZM29.438 54.6392C28.8301 54.3168 28.1527 54.1474 27.4646 54.1458L27.4639 54.4458C28.1033 54.4473 28.7326 54.6046 29.2974 54.9042L29.438 54.6392ZM29.2177 10.5171V54.7717H29.5177V10.5171H29.2177ZM38.8846 0.85C33.5484 0.856392 29.2241 5.18068 29.2177 10.5169L29.5177 10.5173C29.5239 5.34645 33.7142 1.15619 38.885 1.15L38.8846 0.85ZM88.3738 0.85H38.8848V1.15H88.3738V0.85ZM98.0409 10.5169C98.0345 5.18068 93.7102 0.856392 88.374 0.85L88.3736 1.15C93.5445 1.15619 97.7347 5.34645 97.7409 10.5173L98.0409 10.5169ZM98.0409 18.3307V10.5171H97.7409V18.3307H98.0409ZM52.2088 4.95684H75.0499V4.65684H52.2088V4.95684ZM52.3588 6.71027V4.80684H52.0588V6.71027H52.3588ZM54.1123 8.46369C53.1439 8.46369 52.3588 7.67865 52.3588 6.71027H52.0588C52.0588 7.84434 52.9782 8.76369 54.1123 8.76369V8.46369ZM73.1465 8.46369H54.1123V8.76369H73.1465V8.46369ZM74.8999 6.71027C74.8999 7.67865 74.1149 8.46369 73.1465 8.46369V8.76369C74.2806 8.76369 75.1999 7.84434 75.1999 6.71027H74.8999ZM74.8999 4.80684V6.71027H75.1999V4.80684H74.8999ZM25.4846 58.674C25.08 58.9135 24.6624 59.1301 24.2337 59.323L24.3567 59.5966C24.7956 59.3991 25.2232 59.1773 25.6374 58.9322L25.4846 58.674ZM27.4536 57.953C26.7377 58.0047 26.0509 58.2575 25.4722 58.6822L25.6497 58.924C26.1828 58.5327 26.8156 58.2999 27.4752 58.2523L27.4536 57.953ZM28.9423 59.194C28.712 58.9336 28.4443 58.6306 28.1942 58.393C28.0692 58.2743 27.9445 58.1678 27.8276 58.0902C27.7158 58.016 27.589 57.9527 27.4644 57.9527V58.2527C27.4962 58.2527 27.5603 58.2728 27.6616 58.3401C27.7577 58.4039 27.8681 58.497 27.9875 58.6105C28.2264 58.8374 28.4851 59.1298 28.7175 59.3927L28.9423 59.194ZM28.9986 59.2576L28.9423 59.1939L28.7176 59.3927L28.7739 59.4564L28.9986 59.2576ZM33.1887 61.7602C31.4934 61.6006 29.9594 60.6876 29.0108 59.2735L28.7617 59.4406C29.7605 60.9295 31.3755 61.8908 33.1606 62.0588L33.1887 61.7602ZM37.3385 59.2735C36.3899 60.6876 34.856 61.6006 33.1606 61.7602L33.1887 62.0588C34.9738 61.8908 36.5888 60.9295 37.5876 59.4406L37.3385 59.2735ZM37.4071 59.1939L37.3507 59.2576L37.5754 59.4564L37.6318 59.3927L37.4071 59.1939ZM38.8849 57.9527C38.7604 57.9527 38.6335 58.016 38.5218 58.0902C38.4048 58.1678 38.2801 58.2743 38.1551 58.393C37.905 58.6306 37.6373 58.9336 37.407 59.194L37.6318 59.3927C37.8643 59.1298 38.123 58.8374 38.3618 58.6105C38.4812 58.497 38.5916 58.4039 38.6877 58.3401C38.789 58.2728 38.8532 58.2527 38.8849 58.2527V57.9527ZM40.8771 58.6822C40.2985 58.2575 39.6117 58.0047 38.8957 57.953L38.8741 58.2523C39.5337 58.2999 40.1665 58.5327 40.6996 58.924L40.8771 58.6822ZM42.1084 59.3232C41.6823 59.13 41.2672 58.9134 40.865 58.6742L40.7117 58.932C41.1233 59.1769 41.5483 59.3987 41.9846 59.5964L42.1084 59.3232ZM38.422 69.5757L42.187 59.5124L41.906 59.4072L38.141 69.4706L38.422 69.5757ZM28.0678 69.6732H38.2815V69.3732H28.0678V69.6732ZM24.1547 59.5125L27.9273 69.5758L28.2082 69.4705L24.4356 59.4071L24.1547 59.5125ZM23.6575 111.248C18.4867 111.242 14.2964 107.052 14.2903 101.881L13.9903 101.882C13.9966 107.218 18.3209 111.542 23.6572 111.548L23.6575 111.248ZM42.6916 111.248H23.6574V111.548H42.6916V111.248ZM52.0587 101.881C52.0525 107.052 47.8622 111.242 42.6914 111.248L42.6918 111.548C48.028 111.542 52.3523 107.218 52.3587 101.882L52.0587 101.881ZM52.0587 92.3643V101.881H52.3587V92.3643H52.0587ZM40.3315 74.8983C47.4181 77.8067 52.0492 84.7042 52.0587 92.3644L52.3587 92.3641C52.3491 84.5822 47.6445 77.5754 40.4454 74.6207L40.3315 74.8983ZM40.9382 77.1357C40.9316 76.3112 40.7941 75.4929 40.5306 74.7116L40.2463 74.8074C40.4996 75.5586 40.6319 76.3453 40.6382 77.1381L40.9382 77.1357ZM40.9382 79.0403V77.1369H40.6382V79.0403H40.9382ZM36.9813 79.1903H40.7882V78.8903H36.9813V79.1903ZM36.8313 77.1369V79.0403H37.1313V77.1369H36.8313ZM33.1745 73.48C35.1941 73.48 36.8313 75.1173 36.8313 77.1369H37.1313C37.1313 74.9516 35.3598 73.18 33.1745 73.18V73.48ZM29.5176 77.1369C29.5176 75.1173 31.1549 73.48 33.1745 73.48V73.18C30.9892 73.18 29.2176 74.9516 29.2176 77.1369H29.5176ZM29.5176 79.0403V77.1369H29.2176V79.0403H29.5176ZM25.5608 79.1903H29.3676V78.8903H25.5608V79.1903ZM25.4108 77.1369V79.0403H25.7108V77.1369H25.4108ZM25.8184 74.7116C25.5549 75.4929 25.4173 76.3112 25.4108 77.1357L25.7108 77.1381C25.7171 76.3453 25.8493 75.5586 26.1026 74.8074L25.8184 74.7116ZM14.2903 92.3644C14.2997 84.7042 18.9308 77.8067 26.0175 74.8983L25.9036 74.6207C18.7044 77.5754 13.9999 84.5822 13.9903 92.3641L14.2903 92.3644ZM14.2903 101.881V92.3643H13.9903V101.881H14.2903ZM88.3738 111.548C91.6103 111.548 94.234 108.925 94.234 105.688H93.934C93.934 108.759 91.4446 111.248 88.3738 111.248V111.548ZM51.9975 111.548H88.3738V111.248H51.9975V111.548ZM55.8656 101.881C55.8664 105.426 54.4335 108.82 51.8929 111.291L52.1021 111.506C54.7008 108.978 56.1665 105.507 56.1656 101.881L55.8656 101.881ZM55.8656 92.3642V101.881H56.1656V92.3642H55.8656ZM44.5201 72.7442C51.5312 76.7921 55.8546 84.2687 55.8656 92.3644L56.1656 92.364C56.1545 84.1613 51.7739 76.5858 44.6701 72.4844L44.5201 72.7442ZM44.4451 69.5232V72.6143H44.7451V69.5232H44.4451ZM42.3471 69.6732H44.5951V69.3732H42.3471V69.6732ZM46.2381 58.7181L42.2067 69.4705L42.4876 69.5758L46.519 58.8234L46.2381 58.7181ZM46.0371 57.1034C46.3649 57.576 46.44 58.1795 46.2381 58.7181L46.519 58.8234C46.7555 58.1926 46.6675 57.4859 46.2836 56.9324L46.0371 57.1034ZM44.5952 56.3492C45.1704 56.3489 45.7092 56.6307 46.0371 57.1034L46.2836 56.9324C45.8997 56.3788 45.2686 56.0488 44.595 56.0492L44.5952 56.3492ZM42.6029 55.6197C43.1815 56.0444 43.8683 56.2972 44.5843 56.3488L44.6059 56.0496C43.9463 56.002 43.3135 55.7692 42.7804 55.3779L42.6029 55.6197ZM38.881 54.4458C40.2097 54.4795 41.5018 54.8878 42.6086 55.6237L42.7747 55.3739C41.6208 54.6067 40.2738 54.181 38.8886 54.1459L38.881 54.4458ZM34.721 56.9319C35.6696 55.5177 37.2035 54.6047 38.8989 54.4452L38.8708 54.1465C37.0857 54.3145 35.4706 55.2758 34.4718 56.7647L34.721 56.9319ZM34.6524 57.0114L34.7088 56.9477L34.4841 56.7489L34.4277 56.8126L34.6524 57.0114ZM33.1745 58.2526C33.2991 58.2526 33.426 58.1893 33.5377 58.1152C33.6546 58.0375 33.7793 57.9311 33.9043 57.8123C34.1544 57.5747 34.4222 57.2718 34.6524 57.0114L34.4277 56.8126C34.1952 57.0755 33.9365 57.3679 33.6977 57.5948C33.5782 57.7083 33.4679 57.8014 33.3717 57.8652C33.2704 57.9325 33.2063 57.9526 33.1745 57.9526V58.2526ZM33.0245 10.5171V58.1026H33.3245V10.5171H33.0245ZM38.8848 4.65684C35.6483 4.65684 33.0245 7.28057 33.0245 10.5171H33.3245C33.3245 7.44626 35.814 4.95684 38.8848 4.95684V4.65684ZM48.4019 4.65684H38.8848V4.95684H48.4019V4.65684ZM48.5519 6.71027V4.80684H48.2519V6.71027H48.5519ZM54.1122 12.2705C51.0413 12.2705 48.5519 9.78111 48.5519 6.71027H48.2519C48.2519 9.9468 50.8757 12.5705 54.1122 12.5705V12.2705ZM73.1464 12.2705H54.1122V12.5705H73.1464V12.2705ZM78.7067 6.71027C78.7067 9.78111 76.2173 12.2705 73.1464 12.2705V12.5705C76.3829 12.5705 79.0067 9.9468 79.0067 6.71027H78.7067ZM78.7067 4.80684V6.71027H79.0067V4.80684H78.7067ZM88.3738 4.65684H78.8567V4.95684H88.3738V4.65684ZM94.234 10.5171C94.234 7.28057 91.6103 4.65684 88.3738 4.65684V4.95684C91.4446 4.95684 93.934 7.44626 93.934 10.5171H94.234ZM94.234 16.9887V10.5171H93.934V16.9887H94.234ZM69.636 26.0712C75.0908 18.2649 84.8397 14.6954 94.0456 17.1337L94.1225 16.8437C84.7948 14.3732 74.917 17.9899 69.39 25.8994L69.636 26.0712ZM69.636 52.0657C64.1811 44.2594 64.1811 33.8775 69.636 26.0712L69.39 25.8994C63.863 33.8089 63.863 44.328 69.39 52.2375L69.636 52.0657ZM94.0456 61.0031C84.8397 63.4415 75.0908 59.8719 69.636 52.0657L69.39 52.2375C74.917 60.147 84.7948 63.7637 94.1225 61.2931L94.0456 61.0031ZM94.234 105.688V61.1481H93.934V105.688H94.234ZM88.3737 57.9527C77.9443 57.9527 69.4895 49.4979 69.4895 39.0684H69.1895C69.1895 49.6636 77.7786 58.2527 88.3737 58.2527V57.9527ZM107.258 39.0683C107.246 49.4931 98.7984 57.9412 88.3736 57.9527L88.3739 58.2527C98.9641 58.241 107.546 49.6588 107.558 39.0686L107.258 39.0683ZM88.3737 20.1842C98.8032 20.1842 107.258 28.639 107.258 39.0684H107.558C107.558 28.4733 98.9689 19.8842 88.3737 19.8842V20.1842ZM69.4895 39.0684C69.4895 28.639 77.9443 20.1842 88.3737 20.1842V19.8842C77.7786 19.8842 69.1895 28.4733 69.1895 39.0684H69.4895Z" fill="black"/>
<path d="M79.2735 66.4302L71.6598 75.9473C71.2023 76.5187 71.113 77.3018 71.4301 77.9615C71.7471 78.6212 72.4144 79.0407 73.1463 79.0404H75.0498V92.3643H78.8566V77.137C78.8596 76.1411 78.0945 75.3112 77.1017 75.2335L80.76 70.6653L84.4184 75.2335C83.4256 75.3112 82.6604 76.1411 82.6635 77.137V96.1712H86.4703V79.0404H88.3737C89.1057 79.0407 89.7729 78.6212 90.09 77.9615C90.4071 77.3018 90.3178 76.5187 89.8603 75.9473L82.2466 66.4302C81.8721 66.0005 81.33 65.7539 80.76 65.7539C80.19 65.7539 79.648 66.0005 79.2735 66.4302Z" fill="black"/>
<path d="M63.2124 51.2027C62.8379 50.773 62.2958 50.5264 61.7258 50.5264C61.1559 50.5264 60.6138 50.773 60.2393 51.2027L52.6256 60.7198C52.1681 61.2912 52.0788 62.0742 52.3959 62.734C52.7129 63.3937 53.3802 63.8131 54.1122 63.8128H56.0156V77.1368H59.8224V61.9094C59.8255 60.9135 59.0603 60.0837 58.0675 60.006L61.7258 55.4378L65.3842 60.006C64.3914 60.0837 63.6262 60.9135 63.6293 61.9094V80.9436H67.4361V63.8128H69.3395C70.0715 63.8131 70.7388 63.3937 71.0558 62.734C71.3729 62.0742 71.2836 61.2912 70.8261 60.7198L63.2124 51.2027Z" fill="black"/>
<path d="M55.825 34.1823C56.1423 33.523 56.0535 32.7401 55.5966 32.1685L47.9829 22.6514C47.6084 22.2217 47.0663 21.9751 46.4964 21.9751C45.9264 21.9751 45.3843 22.2217 45.0098 22.6514L37.3961 32.1685C36.9384 32.7402 36.8493 33.5237 37.1668 34.1835C37.4843 34.8434 38.1523 35.2626 38.8846 35.2616H40.788V48.5855H44.5948V33.3582C44.5979 32.3623 43.8327 31.5324 42.8399 31.4547L46.4983 26.8865L50.1566 31.4547C49.1638 31.5324 48.3987 32.3623 48.4017 33.3582V52.3924H52.2085V35.2616H54.1119C54.8428 35.2606 55.5086 34.8411 55.825 34.1823V34.1823Z" fill="black"/>
<path d="M63.6289 84.7505H67.4357V88.5573H63.6289V84.7505Z" fill="black"/>
<path d="M63.6289 92.3643H67.4357V96.1711H63.6289V92.3643Z" fill="black"/>
<path d="M82.6636 99.978H86.4704V103.785H82.6636V99.978Z" fill="black"/>
<path d="M75.0498 96.1709H78.8566V99.9777H75.0498V96.1709Z" fill="black"/>
</svg>
