<svg width="233" height="235" viewBox="0 0 233 235" fill="none" xmlns="http://www.w3.org/2000/svg">
<path d="M92.2002 9.43388C79.967 12.7328 69.2774 21.2946 62.276 31.9868C59.0697 36.9547 56.4939 42.2416 55.0739 48.1136C53.6907 53.6088 53.6736 59.7953 54.1032 65.549C54.3128 68.2913 54.7799 71.0321 55.2942 73.6651C55.9923 77.0502 56.6904 80.4352 57.6933 83.7109C59.6886 89.9934 63.8174 95.5102 68.3721 100.056C73.1947 104.87 78.8056 108.764 84.5481 112.066C90.921 115.687 97.8457 118.929 104.823 120.878C112.058 122.827 119.83 122.674 126.215 118.656C131.743 115.127 135.002 108.868 134.321 101.932C133.718 95.6954 130.293 89.7441 125.807 85.6279C120.842 81.138 114.532 79.1304 108.106 79.4368C94.5859 80.1072 82.3565 90.1305 75.0608 101.201C71.2658 106.925 68.3323 113.613 67.5268 120.719C66.7422 128.362 68.627 135.775 72.6452 142.422C76.9892 149.498 82.9411 155.542 88.6252 161.319C94.7401 167.578 101.102 173.566 107.806 179.068C121.06 190.126 135.398 199.887 150.397 208.138C154.133 210.161 157.811 212.022 161.641 213.829C165.051 215.423 167.416 210.03 164.007 208.436C135.351 194.723 109.204 175.294 87.2665 151.536C82.4808 146.346 77.3694 140.727 74.7909 134.018C72.5012 128.114 72.613 121.711 74.3955 115.891C76.32 109.747 79.6579 104.187 83.7522 99.5366C87.6467 95.0489 92.3819 90.9867 97.7421 88.4271C102.95 85.9222 108.772 84.6511 114.594 86.0159C119.375 87.1178 123.641 90.8586 126.336 95.2542C128.82 99.5434 129.686 104.595 127.583 108.803C124.902 114.037 118.749 116.063 113.237 116.042C106.18 116.029 99.0924 112.573 92.6931 109.598C87.4969 107.1 82.4323 104.009 77.7093 100.432C73.1386 96.8009 68.8046 92.6301 65.6688 87.484C62.6958 82.5521 61.6935 76.6404 60.5492 71.0523C59.5205 65.7864 59.4166 60.4612 59.8276 55.1331C60.0967 50.1286 61.5321 45.978 63.6244 41.5008C68.3399 31.6288 76.502 22.974 86.2029 18.1298C88.8304 16.8234 91.4211 15.8939 94.2219 15.0706C95.6985 14.6317 96.3978 12.7448 95.8779 11.2953C95.3003 9.68483 93.6768 8.99493 92.2002 9.43388Z" fill="#283F71"/>
<path d="M128.517 159.451C137.788 171.137 146.106 183.528 153.672 196.463C155.497 199.629 157.379 202.957 159.051 206.178C159.666 207.413 160.597 208.808 160.859 210.261C161.054 211.283 160.749 211.392 159.776 211.559C158.345 211.891 156.904 211.953 155.462 212.015C153.716 212.187 151.912 212.197 150.108 212.208C146.71 212.335 143.302 212.194 139.836 211.891C132.177 211.181 124.488 209.664 117.13 207.391C115.668 206.915 114.021 208.325 113.873 209.833C113.631 211.558 114.714 212.898 116.329 213.319C123.582 215.539 131.014 217.058 138.567 217.714C142.396 218.069 146.272 218.315 150.033 218.24C153.536 218.165 157.25 218.198 160.626 217.532C164.414 216.81 167.144 214.101 166.672 209.904C166.162 206.083 163.649 202.436 161.872 199.161C157.934 192.022 153.69 184.992 149.2 178.233C144.163 170.669 138.925 163.268 133.288 156.192C132.31 154.906 130.59 154.431 129.286 155.354C127.923 156.116 127.491 158.272 128.517 159.451Z" fill="#283F71"/>
</svg>
