<svg width="65" height="74" viewBox="0 0 65 74" fill="none" xmlns="http://www.w3.org/2000/svg">
<path fill-rule="evenodd" clip-rule="evenodd" d="M7.03985 18.479C16.8167 18.3282 25.7247 14.0854 32.5 7.18799C39.2753 14.0854 48.1833 18.3282 57.9601 18.479C58.3152 20.8847 58.5 23.356 58.5 25.8764C58.5 45.1905 47.6475 61.6216 32.5 67.7112C17.3525 61.6216 6.5 45.1905 6.5 25.8764C6.5 23.356 6.68481 20.8847 7.03985 18.479ZM44.5481 32.1867C45.8173 30.7431 45.8173 28.4026 44.5481 26.959C43.2789 25.5153 41.2211 25.5153 39.9519 26.959L29.25 39.1314L25.0481 34.3521C23.7789 32.9085 21.7211 32.9085 20.4519 34.3521C19.1827 35.7957 19.1827 38.1363 20.4519 39.5799L26.9519 46.9731C28.2211 48.4167 30.2789 48.4167 31.5481 46.9731L44.5481 32.1867Z" fill="#2FB492"/>
</svg>
