<svg width="98" height="98" viewBox="0 0 98 98" fill="none" xmlns="http://www.w3.org/2000/svg">
<ellipse cx="50.5654" cy="89.5803" rx="45.3931" ry="7.82639" fill="#1D1939"/>
<path fill-rule="evenodd" clip-rule="evenodd" d="M16.0732 62.9705C16.0732 62.9705 24.6546 36.5093 43.438 52.0136C62.2213 67.5178 69.4431 34.4316 69.4431 34.4316V85.0931C69.4431 85.0931 68.9815 87.254 68.1617 88.0149C67.3418 88.7759 64.6537 89.5386 64.6537 89.5386C64.6537 89.5386 61.4155 89.3344 59.9579 88.0149C58.5003 86.6955 57.8165 83.3495 57.8165 83.3495V79.9374H16.0732V62.9705Z" fill="#00C5B3"/>
<path d="M64.6531 88.0147H8.3031C4.84519 88.0147 2.04199 85.2115 2.04199 81.7536V78.623H58.392V81.7536C58.392 85.2115 61.1952 88.0147 64.6531 88.0147Z" fill="#BFF5FF"/>
<path d="M83.4363 12.8814H70.9141V9.75086C70.9141 6.29294 73.7173 3.48975 77.1752 3.48975C80.6331 3.48975 83.4363 6.29294 83.4363 9.75086V12.8814Z" fill="#8BE6E0"/>
<path d="M47.0537 15.1417C48.4745 12.8914 45.86 10.2761 43.6097 11.6978C43.0226 9.10205 39.3243 9.10205 38.7384 11.6978C36.4881 10.2769 33.8728 12.8924 35.2944 15.1417C32.6987 15.7288 32.6987 19.4271 35.2944 20.013C33.8736 22.2633 36.4881 24.8786 38.7384 23.457C39.3255 26.0527 43.0238 26.0527 43.6097 23.457C45.86 24.8778 48.4753 22.2633 47.0537 20.013C49.6494 19.4267 49.6494 15.728 47.0537 15.1417Z" fill="#287CF1"/>
<path d="M81.8706 22.2734C79.2772 22.2734 77.1748 24.1956 77.1748 26.5668V72.3623H86.5665V26.5668C86.5665 24.1956 84.4641 22.2734 81.8706 22.2734Z" fill="#25CDEB"/>
<path d="M77.1748 72.3623L81.8706 81.754L86.5665 72.3623H77.1748Z" fill="#44F4C7"/>
<path fill-rule="evenodd" clip-rule="evenodd" d="M81.9291 12.4642C82.7616 12.4642 83.4364 11.7867 83.4364 10.9511V7.92488C83.4318 3.74851 80.0603 0.364066 75.8999 0.359375H21.6369C17.4766 0.364066 14.1051 3.74851 14.1004 7.92488V79.0407H3.5493C2.71684 79.0407 2.04199 79.7181 2.04199 80.5538V83.58C2.04666 87.7563 5.41815 91.1408 9.57851 91.1455H63.8415C68.0018 91.1408 71.3733 87.7563 71.378 83.58V12.4642H81.9291ZM17.115 7.92488V79.0407H57.8123C58.6447 79.0407 59.3196 79.7181 59.3196 80.5538V83.58C59.3196 86.087 61.3441 88.1193 63.8415 88.1193C66.3389 88.1193 68.3634 86.087 68.3634 83.58V7.92488C68.3616 6.28706 68.892 4.69334 69.8743 3.38558H21.6369C19.1408 3.3885 17.1179 5.4191 17.115 7.92488ZM9.57787 88.1193C7.08165 88.1165 5.05876 86.0858 5.05596 83.58V82.0669H56.3043V83.58C56.3025 85.2178 56.833 86.8115 57.8152 88.1193H9.57787ZM80.4219 7.92487C80.419 5.41909 78.3962 3.38848 75.9 3.38556C73.4038 3.38848 71.381 5.41909 71.3781 7.92487V9.43797H80.4219V7.92487Z" fill="black"/>
<path d="M83.4364 7.92488L83.6364 7.92488L83.6364 7.92466L83.4364 7.92488ZM75.8999 0.359375L75.9001 0.159375H75.8999V0.359375ZM21.6369 0.359375L21.6369 0.159375L21.6367 0.159375L21.6369 0.359375ZM14.1004 7.92488L13.9004 7.92466V7.92488H14.1004ZM14.1004 79.0407V79.2407H14.3004V79.0407H14.1004ZM2.04199 83.58H1.84199L1.84199 83.5802L2.04199 83.58ZM9.57851 91.1455L9.57829 91.3455H9.57851V91.1455ZM63.8415 91.1455L63.8415 91.3455L63.8417 91.3455L63.8415 91.1455ZM71.378 83.58L71.578 83.5802V83.58H71.378ZM71.378 12.4642V12.2642H71.178V12.4642H71.378ZM17.115 79.0407H16.915V79.2407H17.115V79.0407ZM17.115 7.92488L16.915 7.92465V7.92488H17.115ZM68.3634 7.92488L68.5634 7.92488L68.5634 7.92466L68.3634 7.92488ZM69.8743 3.38558L70.0342 3.50569L70.2746 3.18558H69.8743V3.38558ZM21.6369 3.38558L21.6369 3.18558L21.6367 3.18558L21.6369 3.38558ZM5.05596 83.58L4.85596 83.58L4.85596 83.5802L5.05596 83.58ZM9.57787 88.1193L9.57765 88.3193H9.57787V88.1193ZM5.05596 82.0669V81.8669H4.85596V82.0669H5.05596ZM56.3043 82.0669H56.5043V81.8669H56.3043V82.0669ZM56.3043 83.58L56.5043 83.5802V83.58H56.3043ZM57.8152 88.1193V88.3193H58.2155L57.9751 87.9992L57.8152 88.1193ZM75.9 3.38556L75.9002 3.18556L75.8998 3.18556L75.9 3.38556ZM80.4219 7.92487L80.6219 7.92487L80.6219 7.92463L80.4219 7.92487ZM71.3781 7.92487L71.1781 7.92463V7.92487H71.3781ZM71.3781 9.43797H71.1781V9.63797H71.3781V9.43797ZM80.4219 9.43797V9.63797H80.6219V9.43797H80.4219ZM83.2364 10.9511C83.2364 11.677 82.6504 12.2642 81.9291 12.2642V12.6642C82.8728 12.6642 83.6364 11.8965 83.6364 10.9511H83.2364ZM83.2364 7.92488V10.9511H83.6364V7.92488H83.2364ZM75.8997 0.559375C79.9491 0.56394 83.2319 3.8583 83.2364 7.92511L83.6364 7.92466C83.6316 3.63873 80.1715 0.164191 75.9001 0.159375L75.8997 0.559375ZM21.6369 0.559375H75.8999V0.159375H21.6369V0.559375ZM14.3004 7.92511C14.305 3.8583 17.5878 0.56394 21.6372 0.559375L21.6367 0.159375C17.3654 0.164191 13.9052 3.63873 13.9004 7.92466L14.3004 7.92511ZM14.3004 79.0407V7.92488H13.9004V79.0407H14.3004ZM3.5493 79.2407H14.1004V78.8407H3.5493V79.2407ZM2.24199 80.5538C2.24199 79.8278 2.82802 79.2407 3.5493 79.2407V78.8407C2.60565 78.8407 1.84199 79.6084 1.84199 80.5538H2.24199ZM2.24199 83.58V80.5538H1.84199V83.58H2.24199ZM9.57874 90.9455C5.52937 90.9409 2.24654 87.6466 2.24199 83.5797L1.84199 83.5802C1.84679 87.8661 5.30692 91.3407 9.57829 91.3455L9.57874 90.9455ZM63.8415 90.9455H9.57851V91.3455H63.8415V90.9455ZM71.178 83.5797C71.1734 87.6466 67.8906 90.9409 63.8412 90.9455L63.8417 91.3455C68.1131 91.3407 71.5732 87.8661 71.578 83.5802L71.178 83.5797ZM71.178 12.4642V83.58H71.578V12.4642H71.178ZM81.9291 12.2642H71.378V12.6642H81.9291V12.2642ZM17.315 79.0407V7.92488H16.915V79.0407H17.315ZM57.8123 78.8407H17.115V79.2407H57.8123V78.8407ZM59.5196 80.5538C59.5196 79.6084 58.7559 78.8407 57.8123 78.8407V79.2407C58.5335 79.2407 59.1196 79.8278 59.1196 80.5538H59.5196ZM59.5196 83.58V80.5538H59.1196V83.58H59.5196ZM63.8415 87.9193C61.4553 87.9193 59.5196 85.9772 59.5196 83.58H59.1196C59.1196 86.1967 61.2329 88.3193 63.8415 88.3193V87.9193ZM68.1634 83.58C68.1634 85.9772 66.2277 87.9193 63.8415 87.9193V88.3193C66.45 88.3193 68.5634 86.1967 68.5634 83.58H68.1634ZM68.1634 7.92488V83.58H68.5634V7.92488H68.1634ZM69.7144 3.26547C68.706 4.60798 68.1615 6.24395 68.1634 7.92511L68.5634 7.92466C68.5616 6.33017 69.0781 4.7787 70.0342 3.50569L69.7144 3.26547ZM21.6369 3.58558H69.8743V3.18558H21.6369V3.58558ZM17.315 7.92512C17.3178 5.52889 19.252 3.58837 21.6372 3.58558L21.6367 3.18558C19.0295 3.18863 16.9181 5.30932 16.915 7.92465L17.315 7.92512ZM4.85596 83.5802C4.85889 86.1956 6.97042 88.3163 9.57765 88.3193L9.5781 87.9193C7.19288 87.9166 5.25864 85.976 5.25596 83.5797L4.85596 83.5802ZM4.85596 82.0669V83.58H5.25596V82.0669H4.85596ZM56.3043 81.8669H5.05596V82.2669H56.3043V81.8669ZM56.5043 83.58V82.0669H56.1043V83.58H56.5043ZM57.9751 87.9992C57.019 86.7262 56.5025 85.1747 56.5043 83.5802L56.1043 83.5798C56.1025 85.2609 56.6469 86.8969 57.6553 88.2394L57.9751 87.9992ZM9.57787 88.3193H57.8152V87.9193H9.57787V88.3193ZM75.8998 3.58556C78.2849 3.58835 80.2191 5.52887 80.2219 7.9251L80.6219 7.92463C80.6189 5.3093 78.5074 3.18861 75.9002 3.18556L75.8998 3.58556ZM71.5781 7.9251C71.5809 5.52887 73.515 3.58835 75.9002 3.58556L75.8998 3.18556C73.2926 3.18861 71.1811 5.3093 71.1781 7.92463L71.5781 7.9251ZM71.5781 9.43797V7.92487H71.1781V9.43797H71.5781ZM80.4219 9.23797H71.3781V9.63797H80.4219V9.23797ZM80.2219 7.92487V9.43797H80.6219V7.92487H80.2219Z" fill="black"/>
<path fill-rule="evenodd" clip-rule="evenodd" d="M34.665 20.2736C33.8229 19.6349 33.3341 18.6342 33.3479 17.5774C33.3341 16.5205 33.8229 15.5198 34.665 14.8812C34.5353 13.8355 34.8952 12.7884 35.6402 12.0433C36.3853 11.2982 37.4324 10.9384 38.478 11.0681C39.1257 10.2369 40.1205 9.75098 41.1742 9.75098C42.2279 9.75098 43.2227 10.2369 43.8703 11.0681C44.916 10.9384 45.9631 11.2982 46.7081 12.0433C47.4532 12.7884 47.813 13.8355 47.6833 14.8812C48.5145 15.5289 49.0004 16.5237 49.0004 17.5774C49.0004 18.6311 48.5145 19.6259 47.6833 20.2736C47.813 21.3193 47.4532 22.3663 46.7081 23.1114C45.9631 23.8565 44.916 24.2163 43.8703 24.0866C43.2227 24.9178 42.2279 25.4038 41.1742 25.4038C40.1205 25.4038 39.1257 24.9178 38.478 24.0866C37.4324 24.2163 36.3854 23.8564 35.6403 23.1114C34.8952 22.3663 34.5354 21.3192 34.665 20.2736ZM37.4783 16.0469C37.3162 16.4384 36.9741 16.7268 36.5608 16.8202C36.2069 16.9001 35.9556 17.2146 35.9556 17.5774C35.9556 17.9402 36.2069 18.2547 36.5608 18.3346C36.9741 18.428 37.3162 18.7164 37.4783 19.1079C37.6404 19.4994 37.6023 19.9452 37.376 20.3034C37.1822 20.6103 37.2269 21.0104 37.4835 21.267C37.7402 21.5236 38.1403 21.5681 38.4471 21.3742C38.8053 21.148 39.2511 21.1099 39.6425 21.272C40.034 21.4341 40.3223 21.7762 40.4157 22.1894C40.4957 22.5433 40.8101 22.7947 41.1729 22.7947C41.5357 22.7947 41.8502 22.5433 41.9301 22.1894C42.0236 21.7762 42.3119 21.4341 42.7033 21.272C43.0947 21.1099 43.5405 21.148 43.8987 21.3742C44.2055 21.5681 44.6057 21.5236 44.8623 21.267C45.1189 21.0104 45.1636 20.6103 44.9698 20.3034C44.7435 19.9452 44.7054 19.4994 44.8675 19.1079C45.0296 18.7164 45.3717 18.428 45.785 18.3346C46.1389 18.2547 46.3903 17.9402 46.3903 17.5774C46.3903 17.2146 46.1389 16.9001 45.785 16.8202C45.3717 16.7268 45.0296 16.4384 44.8675 16.0469C44.7054 15.6555 44.7435 15.2096 44.9698 14.8514C45.1635 14.5446 45.1188 14.1446 44.8622 13.888C44.6057 13.6315 44.2057 13.5869 43.8989 13.7806C43.5407 14.0069 43.0948 14.045 42.7034 13.8829C42.3119 13.7208 42.0235 13.3787 41.9301 12.9654C41.8502 12.6115 41.5357 12.3601 41.1729 12.3601C40.8101 12.3601 40.4957 12.6115 40.4157 12.9654C40.3223 13.3787 40.034 13.7208 39.6425 13.8829C39.251 14.045 38.8052 14.0069 38.4469 13.7806C38.1402 13.5869 37.7402 13.6315 37.4836 13.888C37.227 14.1446 37.1824 14.5446 37.376 14.8514C37.6023 15.2096 37.6404 15.6555 37.4783 16.0469Z" fill="black"/>
<path d="M33.3477 34.7954H49.0004V37.926H33.3477V34.7954Z" fill="black"/>
<path d="M39.6084 28.5342H55.2612V31.6647H39.6084V28.5342Z" fill="black"/>
<path d="M30.2173 28.5342H36.4784V31.6647H30.2173V28.5342Z" fill="black"/>
<path d="M27.0864 44.187H64.6531V47.3176H27.0864V44.187Z" fill="black"/>
<path d="M20.8257 44.187H23.9562V47.3176H20.8257V44.187Z" fill="black"/>
<path d="M27.0864 53.5786H64.6531V56.7092H27.0864V53.5786Z" fill="black"/>
<path d="M20.8257 53.5786H23.9562V56.7092H20.8257V53.5786Z" fill="black"/>
<path d="M27.0864 62.9707H36.4781V66.1013H27.0864V62.9707Z" fill="black"/>
<path d="M39.6084 62.9707H64.6528V66.1013H39.6084V62.9707Z" fill="black"/>
<path d="M27.0864 69.2314H52.1309V72.362H27.0864V69.2314Z" fill="black"/>
<path d="M20.8257 69.2314H23.9562V72.362H20.8257V69.2314Z" fill="black"/>
<path d="M55.2617 69.2319H64.6534V72.3625H55.2617V69.2319Z" fill="black"/>
<path fill-rule="evenodd" clip-rule="evenodd" d="M87.61 25.2581H88.9144C91.0745 25.2611 92.8251 27.3129 92.8276 29.8448V46.6626H90.2188V29.8448C90.218 29.0008 89.6344 28.3169 88.9144 28.3159H87.61V74.1827C87.6099 74.42 87.5624 74.654 87.4712 74.8659H87.4722L83.559 84.0393C83.338 84.5571 82.8864 84.8842 82.3924 84.8842C81.8984 84.8842 81.4468 84.5571 81.2258 84.0393L77.3126 74.8659H77.3136C77.2224 74.654 77.1749 74.42 77.1748 74.1827V25.2581C77.1748 21.8806 79.5108 19.1426 82.3924 19.1426C85.274 19.1426 87.61 21.8806 87.61 25.2581ZM85.0017 25.2582C85 23.5702 83.833 22.2024 82.3929 22.2004C80.9528 22.2024 79.7858 23.5702 79.7841 25.2582H85.0017ZM79.7841 72.6538V49.7204H85.0017V72.6538H79.7841ZM79.7841 43.6049V46.6627H85.0017V43.6049H79.7841ZM82.3923 79.9372L80.5897 75.7116H84.195L82.3923 79.9372ZM79.7841 28.3159V40.5471H85.0017V28.3159H79.7841Z" fill="black"/>
<path d="M88.9144 25.2581L88.9145 25.2081H88.9144V25.2581ZM87.61 25.2581H87.56V25.3081H87.61V25.2581ZM92.8276 29.8448L92.8776 29.8448L92.8776 29.8448L92.8276 29.8448ZM92.8276 46.6626V46.7126H92.8776V46.6626H92.8276ZM90.2188 46.6626H90.1688V46.7126H90.2188V46.6626ZM90.2188 29.8448L90.2688 29.8448L90.2688 29.8448L90.2188 29.8448ZM88.9144 28.3159L88.9145 28.2659H88.9144V28.3159ZM87.61 28.3159V28.2659H87.56V28.3159H87.61ZM87.61 74.1827L87.66 74.1827V74.1827H87.61ZM87.4712 74.8659L87.4253 74.8461L87.3953 74.9159H87.4712V74.8659ZM87.4722 74.8659L87.5182 74.8855L87.5479 74.8159H87.4722V74.8659ZM83.559 84.0393L83.605 84.0589L83.605 84.0589L83.559 84.0393ZM81.2258 84.0393L81.1798 84.0589L81.1798 84.0589L81.2258 84.0393ZM77.3126 74.8659V74.8159H77.2369L77.2666 74.8855L77.3126 74.8659ZM77.3136 74.8659V74.9159H77.3895L77.3595 74.8462L77.3136 74.8659ZM77.1748 74.1827H77.1248L77.1248 74.1827L77.1748 74.1827ZM82.3929 22.2004L82.393 22.1504L82.3928 22.1504L82.3929 22.2004ZM85.0017 25.2582V25.3082H85.0517L85.0517 25.2581L85.0017 25.2582ZM79.7841 25.2582L79.7341 25.2581L79.734 25.3082H79.7841V25.2582ZM79.7841 49.7204V49.6704H79.7341V49.7204H79.7841ZM79.7841 72.6538H79.7341V72.7038H79.7841V72.6538ZM85.0017 49.7204H85.0517V49.6704H85.0017V49.7204ZM85.0017 72.6538V72.7038H85.0517V72.6538H85.0017ZM79.7841 46.6627H79.7341V46.7127H79.7841V46.6627ZM79.7841 43.6049V43.5549H79.7341V43.6049H79.7841ZM85.0017 46.6627V46.7127H85.0517V46.6627H85.0017ZM85.0017 43.6049H85.0517V43.5549H85.0017V43.6049ZM80.5897 75.7116V75.6616H80.514L80.5437 75.7312L80.5897 75.7116ZM82.3923 79.9372L82.3464 79.9569L82.3923 80.0647L82.4383 79.9569L82.3923 79.9372ZM84.195 75.7116L84.241 75.7312L84.2707 75.6616H84.195V75.7116ZM79.7841 40.5471H79.7341V40.5971H79.7841V40.5471ZM79.7841 28.3159V28.2659H79.7341V28.3159H79.7841ZM85.0017 40.5471V40.5971H85.0517V40.5471H85.0017ZM85.0017 28.3159H85.0517V28.2659H85.0017V28.3159ZM88.9144 25.2081H87.61V25.3081H88.9144V25.2081ZM92.8776 29.8448C92.875 27.293 91.1093 25.2111 88.9145 25.2081L88.9143 25.3081C91.0398 25.311 92.7751 27.3328 92.7776 29.8449L92.8776 29.8448ZM92.8776 46.6626V29.8448H92.7776V46.6626H92.8776ZM90.2188 46.7126H92.8276V46.6126H90.2188V46.7126ZM90.1688 29.8448V46.6626H90.2688V29.8448H90.1688ZM88.9143 28.3659C89.5997 28.3668 90.168 29.0207 90.1688 29.8449L90.2688 29.8448C90.268 28.9809 89.6692 28.2669 88.9145 28.2659L88.9143 28.3659ZM87.61 28.3659H88.9144V28.2659H87.61V28.3659ZM87.66 74.1827V28.3159H87.56V74.1827H87.66ZM87.5172 74.8857C87.6111 74.6673 87.6599 74.4266 87.66 74.1827L87.56 74.1827C87.5599 74.4134 87.5137 74.6407 87.4253 74.8461L87.5172 74.8857ZM87.4722 74.8159H87.4712V74.9159H87.4722V74.8159ZM83.605 84.0589L87.5182 74.8855L87.4262 74.8463L83.513 84.0196L83.605 84.0589ZM82.3924 84.9342C82.9098 84.9342 83.3776 84.5919 83.605 84.0589L83.513 84.0196C83.2985 84.5224 82.8631 84.8342 82.3924 84.8342V84.9342ZM81.1798 84.0589C81.4072 84.5919 81.875 84.9342 82.3924 84.9342V84.8342C81.9217 84.8342 81.4863 84.5224 81.2718 84.0196L81.1798 84.0589ZM77.2666 74.8855L81.1798 84.0589L81.2718 84.0196L77.3586 74.8463L77.2666 74.8855ZM77.3136 74.8159H77.3126V74.9159H77.3136V74.8159ZM77.1248 74.1827C77.1249 74.4266 77.1737 74.6673 77.2676 74.8857L77.3595 74.8462C77.2711 74.6407 77.2249 74.4134 77.2248 74.1827L77.1248 74.1827ZM77.1248 25.2581V74.1827H77.2248V25.2581H77.1248ZM82.3924 19.0926C79.476 19.0926 77.1248 21.8607 77.1248 25.2581H77.2248C77.2248 21.9005 79.5456 19.1926 82.3924 19.1926V19.0926ZM87.66 25.2581C87.66 21.8607 85.3088 19.0926 82.3924 19.0926V19.1926C85.2392 19.1926 87.56 21.9005 87.56 25.2581H87.66ZM82.3928 22.2504C83.7982 22.2523 84.95 23.5901 84.9517 25.2582L85.0517 25.2581C85.05 23.5503 83.8677 22.1524 82.393 22.1504L82.3928 22.2504ZM79.8341 25.2582C79.8358 23.5901 80.9876 22.2523 82.393 22.2504L82.3928 22.1504C80.918 22.1524 79.7358 23.5503 79.7341 25.2581L79.8341 25.2582ZM85.0017 25.2082H79.7841V25.3082H85.0017V25.2082ZM79.7341 49.7204V72.6538H79.8341V49.7204H79.7341ZM85.0017 49.6704H79.7841V49.7704H85.0017V49.6704ZM85.0517 72.6538V49.7204H84.9517V72.6538H85.0517ZM79.7841 72.7038H85.0017V72.6038H79.7841V72.7038ZM79.8341 46.6627V43.6049H79.7341V46.6627H79.8341ZM85.0017 46.6127H79.7841V46.7127H85.0017V46.6127ZM84.9517 43.6049V46.6627H85.0517V43.6049H84.9517ZM79.7841 43.6549H85.0017V43.5549H79.7841V43.6549ZM80.5437 75.7312L82.3464 79.9569L82.4383 79.9176L80.6357 75.692L80.5437 75.7312ZM84.195 75.6616H80.5897V75.7616H84.195V75.6616ZM82.4383 79.9569L84.241 75.7312L84.149 75.692L82.3464 79.9176L82.4383 79.9569ZM79.8341 40.5471V28.3159H79.7341V40.5471H79.8341ZM85.0017 40.4971H79.7841V40.5971H85.0017V40.4971ZM84.9517 28.3159V40.5471H85.0517V28.3159H84.9517ZM79.7841 28.3659H85.0017V28.2659H79.7841V28.3659Z" fill="black"/>
</svg>
